<?xml version="1.0" standalone="no"?>
<!DOCTYPE svg PUBLIC "-//W3C//DTD SVG 1.1//EN" "http://www.w3.org/Graphics/SVG/1.1/DTD/svg11.dtd" >
<svg xmlns="http://www.w3.org/2000/svg">
<metadata>
This is a custom SVG webfont generated by Font Squirrel.
Copyright   :  1998 Marijanco Galevski Inventif Systems  All Rights Reserved
</metadata>
<defs>
<font id="webfontSNMm04x4" horiz-adv-x="1095" >
<font-face units-per-em="2048" ascent="1638" descent="-410" />
<missing-glyph horiz-adv-x="567" />
<glyph unicode=" "  horiz-adv-x="567" />
<glyph unicode="&#x09;" horiz-adv-x="567" />
<glyph unicode="&#xa0;" horiz-adv-x="567" />
<glyph unicode="!" horiz-adv-x="458" d="M96 104q0 51 34 87t85 36q133 0 133 -127q0 -53 -38 -89t-91 -36t-88 38t-35 91zM135 328v1108h172v-1108h-172z" />
<glyph unicode="&#x22;" horiz-adv-x="702" d="M113 881v555h168v-555h-168zM403 881v555h168v-555h-168z" />
<glyph unicode="#" horiz-adv-x="1177" d="M63 469q0 262 155 398.5t349 136.5q317 0 482 -312l-664 -368l-78 145l490 270q-92 92 -230 92q-147 0 -237 -106q-78 -90 -78 -250q0 -127 92 -229q84 -94 231 -94q264 0 328 309l180 -25q0 -115 -71 -223q-66 -100 -170 -164q-121 -74 -279 -74q-129 0 -245.5 70 t-185.5 182.5t-69 241.5zM180 1393l264 -297h144l-185 297h-223z" />
<glyph unicode="$" horiz-adv-x="1140" d="M176 1149q0 150 100 217q111 74 236 74v164h156v-168h276v-172h-276v-365q190 -121 231 -162q100 -98 100 -250q0 -291 -331 -290v-222h-156v222h-328v172h328v395l-92 55q-160 96 -213 199q-31 55 -31 131zM356 1149q0 -115 156 -184v299q-156 0 -156 -115zM668 369 q68 0 112.5 38.5t38.5 104.5q0 78 -151 180v-323z" />
<glyph unicode="%" horiz-adv-x="1820" d="M96 1120q0 109 41 178q96 162 299 162q137 0 232.5 -94t95.5 -229q0 -147 -95.5 -248t-240.5 -101q-125 0 -225 91q-107 96 -107 241zM252 1128q0 -76 52 -128t128 -52q80 0 126 53.5t46 135.5q0 76 -47 117.5t-125 41.5q-76 0 -128 -47t-52 -121zM344 -25l952 1485h127 l-952 -1485h-127zM1004 307q0 145 102 248q92 92 246 92q156 0 243 -112q80 -106 80 -228q0 -143 -104 -241q-96 -90 -223 -91q-139 0 -241.5 96.5t-102.5 235.5zM1163 311q0 -115 113 -164q29 -12 59 -12q76 0 128.5 47t52.5 121q0 76 -52.5 130t-124.5 54q-74 0 -125 -53 t-51 -123z" />
<glyph unicode="&#x26;" horiz-adv-x="897" d="M59 76v825h166v-655l383 622q6 18 47 31q33 10 58 10q113 0 112 -110v-799h-161v672l-381 -631q-33 -53 -105 -53q-41 0 -80 24.5t-39 63.5zM180 1393l264 -297h144l-185 297h-223z" />
<glyph unicode="'" horiz-adv-x="339" d="M117 1024l71 412h177l-97 -412h-151z" />
<glyph unicode="(" horiz-adv-x="626" d="M147 563q0 207 76 408q119 317 369 489l80 -108l-94 -88q-205 -190 -259 -537q-12 -80 -12 -182q0 -236 90 -445q96 -223 275 -360l-72 -125q-264 203 -358.5 453.5t-94.5 494.5z" />
<glyph unicode=")" horiz-adv-x="780" d="M129 -272q246 211 330 512q33 117 33 292q0 266 -117 504q-102 209 -246 303l72 121q182 -111 313 -362q137 -262 137 -561q0 -279 -106 -508q-121 -260 -336 -410z" />
<glyph unicode="*" horiz-adv-x="1024" d="M129 893l270 143l-270 140l80 129l252 -172l-25 299h156l-25 -299l256 172l76 -129l-270 -140l270 -143l-80 -129l-252 164l25 -287h-156l25 287l-252 -168z" />
<glyph unicode="+" horiz-adv-x="1228" d="M125 416v159h412v408h159v-408h412v-159h-412v-416h-159v416h-412z" />
<glyph unicode="," horiz-adv-x="534" d="M129 -205l84 402h190l-114 -402h-160z" />
<glyph unicode="-" horiz-adv-x="669" d="M55 408v163h461v-163h-461z" />
<glyph unicode="." horiz-adv-x="550" d="M164 113q0 47 34.5 80.5t82.5 33.5q51 0 86.5 -31.5t35.5 -82.5q0 -53 -34.5 -89t-87.5 -36q-51 0 -84 37t-33 88z" />
<glyph unicode="/" horiz-adv-x="540" d="M-12 -25l436 1485h156l-433 -1485h-159z" />
<glyph unicode="0" horiz-adv-x="1200" d="M68 492v460q0 305 256 445q119 63 243 63q262 0 394 -184q111 -158 110 -336v-461q0 -125 -62.5 -237.5t-166.5 -186.5q-115 -80 -275 -80q-150 0 -268.5 74t-177.5 209q-53 119 -53 234zM276 516q0 -348 291 -348q143 0 224 94q74 86 73 234v444q0 215 -141 293 q-68 35 -156 35q-137 0 -214 -90.5t-77 -229.5v-432z" />
<glyph unicode="1" horiz-adv-x="817" d="M227 1255l58 181h399v-1436h-197v1255h-260z" />
<glyph unicode="2" horiz-adv-x="1112" d="M63 139q0 88 80 150l553 432q160 125 160 295q0 121 -85 192.5t-208 71.5t-202.5 -81t-79.5 -204q0 -242 272 -290l-172 -134q-297 113 -297 428q0 262 233 394q121 68 263 67q324 0 428 -254q45 -111 45 -198q0 -158 -90 -285q-66 -92 -220 -211l-428 -332h729v-180 h-755q-226 0 -226 139z" />
<glyph unicode="3" horiz-adv-x="1169" d="M92 0v180h483q127 0 202 77t75 187q0 82 -50 145.5t-130 92.5q-55 18 -131 18h-248v140l446 415h-614v181h600q223 0 223 -152q0 -57 -33 -104q-45 -63 -106 -115l-225 -188q211 0 336 -113q129 -119 129 -328q0 -186 -125 -311t-312 -125h-520z" />
<glyph unicode="4" horiz-adv-x="1191" d="M16 444q2 31 17 68l512 924h211l-516 -924h432v621l196 335v-956h215v-180h-215v-332h-196v332h-525q-131 -1 -131 112z" />
<glyph unicode="5" horiz-adv-x="1157" d="M117 0v180h483q131 0 195 82q57 74 57 178q0 260 -303 260h-373v736h748v-181h-551v-374h202q227 0 353 -107q133 -115 133 -338q0 -188 -119 -307q-129 -129 -274 -129h-551z" />
<glyph unicode="6" horiz-adv-x="1204" d="M47 492q0 117 45 217q31 70 117 190l379 537h239l-510 -717q-70 -100 -69 -250q0 -125 96 -219t223 -94q139 0 234.5 96t95.5 235q0 115 -53 197q-100 156 -352 156l116 164q375 0 471 -379q16 -66 17 -129q0 -133 -66.5 -249t-179.5 -190q-121 -78 -283 -77 q-223 0 -368 143q-152 150 -152 369z" />
<glyph unicode="7" horiz-adv-x="1028" d="M92 1255v181h717q227 0 227 -136q0 -53 -37 -137l-516 -1163h-223l559 1255h-727z" />
<glyph unicode="8" horiz-adv-x="1200" d="M55 424q0 225 234 391q-137 119 -137 277q0 199 184 311q94 57 244 57q180 0 294 -110q102 -98 103 -267q0 -145 -129 -272q127 -70 179 -165t52 -243q0 -190 -159 -315q-147 -113 -345 -113q-213 0 -360 115q-160 125 -160 334zM268 436q0 -129 86 -206.5t217 -77.5 q127 0 214 75.5t87 200.5q0 184 -155 252q-68 29 -146 29q-127 0 -215 -74t-88 -199zM360 1071q0 -84 66 -135q59 -47 145 -47q197 0 197 194q0 135 -104 181q-39 16 -97 16q-96 0 -151.5 -56.5t-55.5 -152.5z" />
<glyph unicode="9" horiz-adv-x="1150" d="M51 944q0 129 64.5 244t173.5 190q119 82 291 82q135 0 253.5 -67.5t188.5 -183t70 -253.5q0 -193 -152 -407l-387 -549h-238l449 633q68 96 96 160q37 84 37 159q0 174 -158 281q-74 47 -159 47q-154 0 -243 -103.5t-89 -256.5q0 -143 110 -238q102 -86 289 -86 l-110 -164q-262 0 -377 172q-109 162 -109 340z" />
<glyph unicode=":" horiz-adv-x="524" d="M164 109q0 104 117 118q51 0 89 -35.5t38 -87.5q0 -70 -76 -106q-20 -10 -47 -10q-121 0 -121 121zM164 700q0 49 37 84t80 35q123 0 122 -119q0 -51 -30.5 -85.5t-79.5 -34.5t-89 29.5t-40 90.5z" />
<glyph unicode=";" horiz-adv-x="509" d="M129 -205l86 406h193l-119 -406h-160zM164 696q0 113 121 127q47 0 85 -40t38 -87q0 -45 -35 -80.5t-80 -35.5q-51 0 -87 32.5t-42 83.5z" />
<glyph unicode="&#x3c;" horiz-adv-x="1228" d="M125 420v139l983 436v-159l-784 -349l784 -348v-159z" />
<glyph unicode="=" horiz-adv-x="1228" d="M125 213v160h983v-160h-983zM125 616v160h983v-160h-983z" />
<glyph unicode="&#x3e;" horiz-adv-x="1228" d="M125 -20v159l782 348l-782 349v159l983 -436v-139z" />
<glyph unicode="?" horiz-adv-x="948" d="M51 1004q0 197 121 326.5t315 129.5q168 0 290 -121.5t122 -289.5q0 -170 -98.5 -292t-263.5 -149v-280h-177v452q258 0 324 123q25 49 25 129q0 106 -65.5 177t-172.5 71q-111 0 -170 -86q-53 -74 -53 -190h-197zM319 109q0 51 37 83.5t88 38.5q53 0 92 -34.5t39 -87.5 q0 -59 -35.5 -96.5t-95.5 -37.5q-51 0 -88 41.5t-37 92.5z" />
<glyph unicode="@" horiz-adv-x="1443" d="M63 1305h179q39 -254 219 -459q61 -84 172 -84v543h166v-543q113 0 174 84q178 201 219 459h178q-51 -256 -199 -480q-70 -104 -127 -104q66 -8 132.5 -55.5t101.5 -107.5t35 -132v-422h-178v377q0 129 -109 194q-49 29 -98 29h-129v-604h-166v604h-127q-104 0 -176 -110 q-33 -51 -33 -113v-377h-176v422q0 147 135 242q61 41 133 53q-63 0 -151 143q-57 94 -99 201q-56 136 -76 240z" />
<glyph unicode="A" d="M76 4v901q0 180 131 299q125 113 305 113q176 0 305 -121q137 -129 137 -291v-901h-170v578h-467v166h467v135q0 133 -69.5 207.5t-202.5 74.5q-129 0 -199.5 -75.5t-70.5 -206.5v-879h-166z" />
<glyph unicode="B" horiz-adv-x="1005" d="M76 291v1009h743v-165h-569v-789q0 -88 76 -145q70 -49 161 -49q115 0 183.5 74.5t68.5 189.5q0 137 -88 207q-41 31 -92 30h-246v166h256q162 0 258 -123q90 -111 91 -274q0 -121 -64 -223q-131 -211 -383 -211q-213 0 -338 159q-57 70 -57 144z" />
<glyph unicode="C" horiz-adv-x="1134" d="M72 358v947h178v-951q0 -78 46 -126t126 -48h223q82 0 128 46t46 128v951h176v-969q0 -113 -55 -205q51 -35 87 -113.5t36 -191.5h-180q0 178 -170 178h-367q-141 0 -213 113q-61 94 -61 241z" />
<glyph unicode="D" horiz-adv-x="1280" d="M27 0q0 66 51 122t115 56v477q0 152 63 285q88 186 279 283q172 86 393 86h86v-1131q66 0 116 -56t50 -122v-207h-166v207h-821v-207h-166v207zM362 178h467v952q-307 -37 -417 -266q-49 -100 -50 -205v-481z" />
<glyph unicode="E" horiz-adv-x="942" d="M49 649q-1 14 -1 28q0 123 65 261q61 135 182 223q135 80 178 101q102 47 199 47h188v-174l-84 4q-14 1 -27 0q-175 0 -331 -97q-156 -98 -185 -288h631v-170h-631q0 -115 80 -215q156 -195 412 -195h139v-170h-139l-141 8q-92 6 -172 45q-180 88 -283 271 q-53 92 -70 184l-6 70z" />
<glyph unicode="F" horiz-adv-x="1495" d="M49 631q0 299 285 475q135 82 293 100v111h180v-111q236 -20 409 -184t173 -395v-19q0 -121 -83 -237.5t-208 -186.5q-131 -72 -291 -90v-108h-180v108q-346 39 -504 283q-74 115 -74 254zM225 637l4 -4q0 -205 197 -332q90 -59 201 -78v840q-156 -27 -275 -148 q-127 -126 -127 -278zM807 219q150 27 267.5 133.5t135.5 251.5v33q0 156 -114 274q-127 131 -289 156v-848z" />
<glyph unicode="G" horiz-adv-x="815" d="M84 4v914q0 104 50 197t137 143.5t190 50.5h309v-170h-317q-115 0 -172 -84q-29 -41 -29 -86v-965h-168z" />
<glyph unicode="H" horiz-adv-x="1142" d="M31 1147v162h14q170 0 313 -105q137 -104 197 -264q51 166 183 269.5t302 103.5h19v-170q-184 0 -307 -152q-115 -141 -115 -336q0 -121 56.5 -231.5t148.5 -177.5q104 -76 221 -76v-170q-166 0 -318 106q-158 109 -198 267q-70 -190 -268 -307q-111 -66 -244 -66v174 q188 0 307 152q106 137 107 329q0 276 -205 418q-107 74 -213 74z" />
<glyph unicode="I" horiz-adv-x="1146" d="M68 113v1192h170v-1049l505 1004q12 25 58 38q37 14 69 15q61 0 101.5 -38t40.5 -118v-1153h-170v1049h-8l-494 -990q-39 -78 -137 -77q-55 0 -95 36t-40 91z" />
<glyph unicode="J" horiz-adv-x="700" d="M31 4v170h149q57 0 103 23q106 53 106 149v959h189v-902q0 -176 -125 -287.5t-301 -111.5h-121z" />
<glyph unicode="K" horiz-adv-x="1062" d="M80 4v1301h170v-543h153q127 0 189 84q178 201 219 459h178q-51 -256 -198 -480q-70 -104 -127 -104q66 -8 132 -55.5t101 -107.5t35 -132v-422h-178v377q0 129 -109 192q-51 31 -98 31h-297v-600h-170z" />
<glyph unicode="L" horiz-adv-x="1026" d="M72 0v655q0 150 63 285q86 186 279 283q172 86 393 86h86v-1309h-184v1130q-311 -41 -418 -266q-49 -102 -49 -205v-659h-170z" />
<glyph unicode="M" horiz-adv-x="1673" d="M76 0v1022q0 86 63 160q55 63 143.5 102t184.5 39q203 0 340 -145q76 74 121 96q104 53 227 53q100 0 191.5 -44t140.5 -126q51 -90 51 -211v-946h-172v918q0 203 -170 243l-53 4q-6 0 -12 1q-54 0 -117 -33q-59 -33 -95 -91.5t-36 -121.5l2 -7l2 -8v-905h-178v918 q0 49 -23 102q-57 137 -203 137q-92 0 -161 -57q-76 -59 -76 -150v-950h-170z" />
<glyph unicode="N" horiz-adv-x="1136" d="M80 0v1305h176v-476h569v476h179v-1305h-179v664h-569v-664h-176z" />
<glyph unicode="O" horiz-adv-x="1499" d="M35 641q0 186 88 343t246.5 248t347.5 91q176 0 330.5 -91t243.5 -246t89 -345v-27q0 -242 -196.5 -430t-466.5 -188q-186 0 -340 82q-162 84 -252 239q-90 150 -90 324zM211 649l4 -4q0 -195 150.5 -342t351.5 -147q121 0 229.5 64.5t176 169t79.5 220.5v43 q0 199 -142 355.5t-339 156.5q-133 0 -252 -73.5t-188.5 -192.5t-69.5 -250z" />
<glyph unicode="P" horiz-adv-x="1062" d="M80 0v936q0 162 137 274q127 106 293 107q76 0 156 -29q168 -61 235 -198q35 -72 35 -154v-936h-174v942q0 100 -77 159.5t-179 59.5q-113 0 -180 -53q-74 -57 -74 -166v-942h-172z" />
<glyph unicode="Q" horiz-adv-x="1656" d="M86 0v655q0 143 66 285q86 184 278 283q172 86 391 86h88v-1147l234 -4q109 0 182.5 72.5t73.5 181.5q0 82 -47 152.5t-133 99.5h-246v165h256q86 0 170 -61q74 -55 123 -135q55 -94 55 -203q0 -119 -60.5 -218t-164 -155.5t-222.5 -56.5h-405v1130q-305 -37 -420 -266 q-49 -98 -49 -205v-659h-170z" />
<glyph unicode="R" horiz-adv-x="966" d="M86 4v1010q0 86 64 160q55 63 141 102q94 41 192 41q117 0 221.5 -55.5t164 -153.5t59.5 -217q0 -115 -78 -231.5t-184 -157.5q-39 -14 -84 -15h-258v166h245q98 0 152 129q23 55 22 119q0 119 -67.5 184.5t-188.5 65.5q-96 0 -157 -47q-70 -53 -70 -146v-954h-174z" />
<glyph unicode="S" horiz-adv-x="923" d="M45 623q-1 17 -1 34q0 133 69 283q133 213 264 274q197 94 407 95h86v-174l-86 4h-21q-80 0 -181 -27q-229 -63 -314 -248q-49 -109 -49 -231q0 -123 68 -238q88 -119 223 -192q130 -38 220 -38q16 0 32 1l108 8v-170h-131l-131 4q-188 6 -354 160q-145 135 -201 338z " />
<glyph unicode="T" horiz-adv-x="817" d="M49 1139v174h825v-174h-319v-1135h-182v1135h-324z" />
<glyph unicode="U" horiz-adv-x="854" d="M4 1305h184l252 -750h21l233 750h170l-366 -1135q-55 -170 -174 -170h-199v166h113q86 0 86 86q0 78 -33 178z" />
<glyph unicode="V" horiz-adv-x="1083" d="M68 4v889q0 109 24.5 190.5t100.5 147.5q98 86 264 86h96l43 -4q82 -18 152 -76q145 -121 145 -291q0 -96 -47 -172q-43 -53 -80 -80q197 -129 197 -301q0 -223 -150 -336q-72 -53 -164 -53h-348v170h330q66 0 98 55q29 47 29 117q0 59 -23 117q-51 129 -176 129h-258 v166h250q74 16 122 73.5t48 131.5q0 96 -82 153q-74 53 -174 53q-115 0 -182 -79q-18 -23 -33 -86q-12 -55 -12 -95l4 -16v-889h-174z" />
<glyph unicode="W" horiz-adv-x="1720" d="M45 0v1300h178v-471h570v471h176v-1138l233 -4q109 0 183.5 72.5t74.5 181.5q0 86 -50 157.5t-132 94.5h-244v165h256q84 0 170 -63q74 -55 123 -135q53 -92 53 -201q0 -186 -130 -308t-314 -122h-399v664h-570v-664h-178z" />
<glyph unicode="X" horiz-adv-x="1079" d="M31 358v947h176v-951q0 -80 47 -127t127 -47h223q172 0 172 174v951h178v-947q0 -211 -131 -305q-66 -49 -151 -49h-90v-182h-179v182h-98q-141 0 -213 113q-61 94 -61 241z" />
<glyph unicode="Y" horiz-adv-x="1015" d="M84 8v166h524q117 0 140 121v18q0 39 -23 93q-18 45 -70 77q-154 100 -440 252q-129 115 -129 242l8 49q14 80 62 145q104 141 260 142h454v-178h-471q-51 0 -91 -49.5t-40 -100.5q0 -80 90 -129l392 -215q119 -66 161 -213q12 -43 13 -88q0 -123 -78 -231 q-96 -100 -219 -101h-543z" />
<glyph unicode="Z" horiz-adv-x="966" d="M35 156v225h176v-152q86 -68 184 -67q86 0 159 49t99 129l2 53q2 68 -41 131.5t-107.5 97t-137.5 33.5h-56v160h64l8 -4q84 0 162 86q14 37 14 88q0 70 -47 123t-119 53h-22q-119 -20 -127 -90v-170h-174v260q47 70 118 113q84 49 156 49h23q258 0 346 -174 q35 -74 35 -150q0 -152 -109 -251q92 -55 146.5 -150.5t54.5 -202.5q0 -109 -39 -176q-127 -219 -430 -219q-209 0 -338 156z" />
<glyph unicode="[" horiz-adv-x="1554" d="M37 291v1022h170v-951q0 -86 74.5 -148t162.5 -62q127 0 193 112q35 59 35 131v918h176l-2 -924q0 -102 79 -174t181 -72l27 4l24 5q170 45 170 243v918h174v-946q0 -229 -213 -330q-96 -45 -198 -45q-115 0 -199 45q-49 27 -121 98q-135 -147 -340 -147q-223 0 -338 153 q-55 72 -55 150z" />
<glyph unicode="\" horiz-adv-x="747" d="M41 4v914q0 231 190 342q86 49 187 49h309v-170h-315q-115 0 -172 -84q-29 -41 -29 -86v-965h-170zM369 1389l174 264h143l-192 -264h-125z" />
<glyph unicode="]" horiz-adv-x="1021" d="M37 4v1301h170v-543h155q127 0 189 84q178 201 219 459h176q-23 -127 -84 -273q-68 -156 -145 -248q-53 -63 -94 -63q66 -8 133 -55q135 -96 135 -240v-422h-178v377q0 129 -109 192q-51 31 -98 31h-299v-600h-170zM412 1389l172 264h143l-190 -264h-125z" />
<glyph unicode="^" horiz-adv-x="919" d="M31 901v404h176l-4 -418q0 -104 76.5 -177t181.5 -73q92 0 164.5 70.5t72.5 179.5v418h176v-1305h-176v547q-106 -72 -245 -72q-246 0 -365 211q-57 98 -57 215z" />
<glyph unicode="_" horiz-adv-x="1255" d="M8 -53h1176v-86h-1176v86z" />
<glyph unicode="`" horiz-adv-x="1267" d="M27 901h161l23 -104q41 -94 117 -162q86 -76 178 -76l20 2l25 4v336h166v-336l22 -4l19 -2q94 0 174 70.5t121 167.5l22 104h162q-57 -186 -197 -319l-67 -50q86 -16 146.5 -69t68.5 -135v-324h-154v291q0 29 -22 57q-55 55 -133 56h-162v-404h-166v404h-166 q-53 0 -100 -29q-55 -35 -56 -84v-291h-153v324q25 174 215 204l-68 50q-137 129 -196 319z" />
<glyph unicode="a" horiz-adv-x="1110" d="M63 444q0 205 150 347q119 115 330 114h16q98 0 194.5 -55t156 -138t59.5 -169v-539h-158v512q0 143 -154 209q-72 29 -145 29q-152 0 -229 -105q-57 -94 -58 -188q0 -104 56 -193q59 -94 153 -112l31 -6l29 -5l26 -2h12q51 0 113 31q53 35 86 78v-189q-109 -68 -233 -67 q-139 0 -252 83t-156 216q-27 83 -27 149z" />
<glyph unicode="b" horiz-adv-x="1089" d="M59 453q0 397 191 573q88 80 190 80q74 0 146 76q29 29 28 55h162q0 -63 -45 -127q-98 -137 -219 -137q-66 0 -127 -43t-84 -105q94 80 211 80q119 0 225.5 -62.5t167 -168t60.5 -221.5q0 -119 -62.5 -224.5t-166 -167t-224.5 -61.5t-224.5 61.5t-166 168t-62.5 223.5z M225 438q0 -162 148 -250q68 -41 139 -41q72 0 141.5 43t107.5 109t38 139q0 119 -85 210t-202 91q-160 0 -246 -151q-41 -72 -41 -150z" />
<glyph unicode="c" horiz-adv-x="972" d="M59 246v655h166v-672q0 -104 137 -104h158q74 0 107 20q41 25 41 93v663h161v-676q0 -76 -49 -135q88 -53 109 -131q8 -31 8 -80h-162q0 121 -147 121h-293q-111 0 -173.5 66.5t-62.5 179.5z" />
<glyph unicode="d" horiz-adv-x="944" d="M35 0q0 59 42 101t101 42v314q0 113 45 198q100 190 340 242q76 16 158 16h63v-770q61 0 102.5 -41t41.5 -102v-143h-144v143h-606v-143h-143v143zM324 143h313v619q-199 -18 -275 -174q-39 -80 -38 -135v-310z" />
<glyph unicode="e" d="M59 412q0 76 23 180q41 190 203 278q86 47 180 48h24q145 0 269.5 -76t183.5 -205l-588 -340l-75 133l434 248q-80 92 -215 92q-90 0 -164 -48t-105 -138l-18 -109q0 -90 47 -172t127 -119q72 -33 135 -32q160 0 248 129q47 70 47 137l162 -33q-12 -111 -81 -203 t-170 -137t-216 -45q-145 0 -258 72q-61 39 -123 139q-66 109 -66 170l-2 14z" />
<glyph unicode="f" horiz-adv-x="1224" d="M37 453q0 119 62.5 224t167 166.5t222.5 61.5v400h164v-400q119 0 224.5 -62.5t167 -166t61.5 -223.5q0 -119 -61.5 -222.5t-166 -167t-225.5 -63.5v-385h-164v385q-182 0 -317 135.5t-135 317.5zM203 438q0 -74 42 -142.5t106.5 -108.5t137.5 -40v592q-117 0 -201.5 -91 t-84.5 -210zM653 147q154 0 246 150q41 68 41 141q0 119 -85 210t-202 91v-592z" />
<glyph unicode="g" horiz-adv-x="567" d="M27 0v614q0 121 94 204t215 83h153v-151h-143q-33 0 -67 -19q-86 -37 -86 -108v-623h-166z" />
<glyph unicode="h" horiz-adv-x="854" d="M31 4v148q74 0 140.5 43t98 109.5t31.5 144.5q0 68 -31 141q-61 147 -235 172v143q104 0 200.5 -59.5t149.5 -151.5q100 188 350 211v-151q-164 0 -235 -156q-33 -68 -33 -145q0 -74 36 -145.5t93 -106.5q80 -49 147 -49v-148l-16 -2l-14 -2q-94 0 -189 66 q-82 57 -139 145q-116 -207 -354 -207z" />
<glyph unicode="i" horiz-adv-x="964" d="M59 76v825h166v-655l383 622q6 18 47 31q33 10 58 10q113 0 112 -110v-799h-161v672l-381 -631q-33 -53 -105 -53q-41 0 -80 24.5t-39 63.5z" />
<glyph unicode="j" horiz-adv-x="593" d="M45 -260h39q78 0 142.5 37t64.5 102v1022h170v-987q0 -109 -74 -213q-47 -68 -127 -94q-92 -18 -162 -19h-53v152zM274 1094q0 51 50 94q43 14 61 14q51 -10 86 -59l4 -41q0 -25 -10 -62q-41 -45 -84 -45q-33 0 -84 39q-23 42 -23 60z" />
<glyph unicode="k" horiz-adv-x="845" d="M49 4v897h162v-336l22 -4l19 -2q66 0 127 35q133 74 190 203l23 104h162q-55 -186 -195 -319l-70 -50q84 -14 146 -67q70 -57 70 -137v-324h-154v291q0 53 -53 86q-45 27 -103 27h-184v-404h-162z" />
<glyph unicode="l" horiz-adv-x="970" d="M59 0v385q0 59 29 133q88 227 301 324q61 29 174 53q102 23 207 23h55v-918h-161v750q-225 0 -390 -207q-49 -61 -49 -154v-389h-166z" />
<glyph unicode="m" horiz-adv-x="1374" d="M59 4v604q0 106 79 192.5t186 104.5l57 4q7 0 14 1q59 0 135 -31q74 -33 119 -86q76 82 189 102q33 6 75 6q78 0 153 -35t110.5 -90t52.5 -131v-641h-162v569q0 74 -53 131.5t-127 57.5q-55 0 -103 -37q-57 -57 -57 -129v-592h-166v584q0 174 -166 174q-82 0 -126 -62.5 t-44 -148.5v-547h-166z" />
<glyph unicode="n" horiz-adv-x="970" d="M59 4v897h166v-364h439v364h161v-897h-161v365h-439v-365h-166z" />
<glyph unicode="o" horiz-adv-x="1067" d="M37 453q0 291 219 401q100 51 233 51q197 0 325 -126t128 -326q0 -125 -57.5 -230.5t-163 -164t-232.5 -58.5q-276 0 -393 207q-59 105 -59 246zM203 438q0 -176 141 -256q61 -35 145 -35q127 0 207 82t80 209q0 178 -139 262q-68 39 -148 39q-127 0 -206.5 -87 t-79.5 -214z" />
<glyph unicode="p" horiz-adv-x="970" d="M59 0v610q0 186 195 267q88 37 195 36q223 0 325 -135q51 -68 51 -151v-627h-161v516q0 143 -109 201q-51 27 -111 26q-104 0 -161.5 -65.5t-57.5 -171.5v-506h-166z" />
<glyph unicode="q" horiz-adv-x="1388" d="M31 0v385q0 82 57 201q102 209 342 282l105 27q100 23 204 23h58v-756h207q135 0 135 133q0 63 -37 104t-98 41h-166v164h176q150 0 233 -145q39 -72 39 -158q0 -78 -35 -149q-37 -78 -99 -115t-138 -37h-381v750q-221 0 -387 -207q-49 -61 -49 -154v-389h-166z" />
<glyph unicode="r" horiz-adv-x="1091" d="M76 -395v884q0 170 135 295q129 121 301 121q176 0 308 -108.5t153 -280.5v-59q0 -164 -92 -293q-98 -137 -254 -164l-103 -8q-14 -1 -27 -1q-103 0 -200 68v164q92 -80 213 -80q129 0 217 82t88 209v19q0 53 -22 143q-96 170 -277 170h-41q-121 -27 -184 -127 q-57 -92 -58 -221v-813h-157z" />
<glyph unicode="s" horiz-adv-x="702" d="M18 453l13 90q12 88 78 178q133 184 325 184h211v-157h-223q-131 0 -201 -156q-33 -72 -33 -143q0 -76 37 -144q68 -88 144.5 -120.5t191.5 -32.5h80v-148h-158l-94 8q-66 6 -94 19q-152 59 -227 215q-50 98 -50 207z" />
<glyph unicode="t" horiz-adv-x="860" d="M41 750v151h739v-151h-286v-750h-170v750h-283z" />
<glyph unicode="u" horiz-adv-x="909" d="M41 901h166l264 -682h12l248 682h174l-471 -1225q-31 -80 -117 -79q-37 0 -77.5 19t-51.5 52l45 162q18 -45 68 -45q25 0 31 14l57 156z" />
<glyph unicode="v" horiz-adv-x="890" d="M80 0v618q0 154 113 240q55 41 139 51h147q139 -27 201 -143q29 -57 29 -111q0 -63 -37 -118q-10 -16 -62 -58q152 -84 152 -207q0 -150 -113 -231q-55 -41 -129 -41h-223v156h213q35 0 65 26q25 29 25 64q0 61 -50 96t-116 35h-129v151h144q49 0 79.5 36t30.5 85 q0 59 -47 101q-35 39 -123 38q-109 0 -145 -90q-10 -35 -11 -88v-610h-153z" />
<glyph unicode="w" horiz-adv-x="1429" d="M72 4v897h166v-297h438v297h162v-739h206q135 0 136 133q0 63 -37 104t-99 41h-165v164h178q111 0 182 -84q88 -80 88 -219q0 -180 -135 -262q-63 -39 -135 -39h-381v430h-438v-426h-166z" />
<glyph unicode="x" horiz-adv-x="923" d="M23 246v655h165v-672q0 -104 136 -104h159q74 0 107 20q41 25 41 93v663h162v-655q0 -150 -111 -213q-55 -33 -131 -33h-76v-121h-135v121h-84q-111 0 -172 67.5t-61 178.5z" />
<glyph unicode="y" horiz-adv-x="927" d="M98 655q0 55 31 113.5t78 91.5q63 35 129 41h467v-151h-459q-31 0 -53.5 -21.5t-22.5 -52.5q0 -35 41 -66l404 -149q61 -23 95 -82.5t34 -126.5q0 -139 -111 -211q-72 -31 -135 -37h-494v152h498q68 23 68 82q0 66 -58 86l-381 141q-57 20 -94 74.5t-37 115.5z" />
<glyph unicode="z" horiz-adv-x="741" d="M31 94v158h143v-90q51 -33 100 -33q57 0 108.5 34t70.5 87l4 33q0 63 -57.5 110t-125.5 47l-32 4v111h37l16 -4q57 0 90 45q10 27 10 57q0 49 -30.5 85t-77.5 36q-27 0 -58.5 -19.5t-31.5 -45.5v-91h-140v181q70 100 203 114h19q176 0 241 -125q27 -51 27 -102 q0 -109 -80 -176q147 -90 147 -246q0 -63 -30 -125q-96 -152 -305 -151q-156 0 -248 106z" />
<glyph unicode="{" horiz-adv-x="1304" d="M63 295v606h166l-4 -579q0 -137 129 -179l23 -4l18 -4q68 0 119 54.5t51 123.5v588h166v-596q0 -66 47 -118t113 -52q72 0 126 60.5t54 132.5v573h162v-645q-18 -76 -53 -131q-82 -125 -262 -125q-70 0 -140.5 27.5t-124.5 81.5q-53 -55 -125 -86q-82 -35 -143 -31l-57 4 q-109 23 -187 106.5t-78 192.5z" />
<glyph unicode="|" horiz-adv-x="555" d="M27 0v614q0 121 94 204t215 83h153v-151h-143q-33 0 -67 -19q-86 -37 -86 -108v-623h-166zM238 1018l157 246h129l-174 -246h-112z" />
<glyph unicode="}" horiz-adv-x="798" d="M49 4v897h162v-336l22 -4l19 -2q66 0 127 35q133 74 190 203l23 104h162q-55 -186 -195 -319l-70 -50q84 -14 146 -67q70 -57 70 -137v-324h-154v291q0 53 -53 86q-45 27 -103 27h-184v-404h-162zM322 1018l157 246h129l-174 -246h-112z" />
<glyph unicode="~" horiz-adv-x="837" d="M57 682v219h162v-174q0 -150 70 -190q39 -25 106 -25q205 0 205 190v199h166v-901h-166v434q-92 -68 -231 -67q-70 0 -136 26q-98 53 -139 119q-37 74 -37 170z" />
<glyph unicode="&#xa1;" horiz-adv-x="456" d="M104 899q0 51 37 84t90 33q129 0 129 -131q0 -53 -36 -90q-35 -29 -88 -35q-55 0 -93.5 42t-38.5 97zM147 -444v1108h172v-1108h-172z" />
<glyph unicode="&#xa2;" horiz-adv-x="1140" d="M143 788q0 152 111 274t262 122v252h156v-256h133v-181h-230q-236 0 -235 -227q0 -213 248 -213h217v-182h-133v-264h-156v264q-205 0 -317 192q-56 94 -56 219z" />
<glyph unicode="&#xa3;" horiz-adv-x="1140" d="M-8 0v176l104 8q82 6 120 48t36 141l-8 286h-135v181h131v188q0 188 129 313q123 119 278 119q168 0 273 -51l-64 -170q-80 37 -172 37q-98 0 -169 -62.5t-71 -160.5v-213h236v-181h-227v-294q0 -117 -80 -185h268q133 0 197 58q74 68 73 178v243h201v-251 q0 -174 -125 -295q-117 -113 -332 -113h-663z" />
<glyph unicode="&#xa4;" horiz-adv-x="1140" d="M51 299l113 117q-100 119 -101 311q0 193 101 293l-113 121l96 96l113 -121q88 63 150 86q70 27 170 27q166 0 297 -113l110 121l100 -100l-110 -117q102 -131 102 -293q0 -180 -102 -311l110 -119l-100 -96l-110 114q-131 -102 -281 -102q-193 0 -336 102l-108 -118z M231 713q0 -139 96.5 -239.5t235.5 -100.5q94 0 164 37q84 43 132 129t48 182q0 139 -100 248q-94 102 -248 102q-143 0 -235.5 -106.5t-92.5 -251.5z" />
<glyph unicode="&#xa5;" horiz-adv-x="1140" d="M25 1255v181q119 0 254 -64q233 -109 292 -356q0 88 83 192.5t207 166t255 61.5v-181q-74 0 -144.5 -25.5t-132 -86t-122.5 -174.5h340l-4 -181h-385v-124h385v-181h-385l4 -483h-203v483h-381v181h381v124h-381l-4 181h336q-123 286 -395 286z" />
<glyph unicode="&#xa6;" horiz-adv-x="315" d="M143 0v1436h160v-1436h-160z" />
<glyph unicode="&#xa7;" horiz-adv-x="1024" d="M109 756q0 184 235 217q-121 131 -121 239q0 111 90 181q82 68 195 67q170 0 260 -98l59 -66l-118 -100q-109 127 -193 127q-113 0 -125 -115q6 -63 53 -112q39 -41 312 -308q160 -156 159 -305q0 -98 -73.5 -158.5t-149.5 -60.5q113 -141 113 -256q0 -121 -103 -188 q-88 -59 -215 -60q-86 0 -147 31q-57 23 -102 68l-74 73l135 101q72 -133 197 -133q53 0 93 28.5t40 79.5q0 100 -150 248q-47 35 -92 82l-88 94l-76 80q-114 121 -114 244zM281 764q10 -98 129 -213l98 -94q70 -66 135 -76q96 12 96 84q0 59 -63 127l-180 192 q-76 63 -127 64q-74 0 -88 -84z" />
<glyph unicode="&#xa8;" horiz-adv-x="567" d="M4 1233q0 49 34 79.5t83 30.5q115 0 115 -104q0 -53 -31 -87t-84 -40q-117 0 -117 121zM332 1233q0 49 33.5 79.5t83.5 30.5q115 0 114 -106q0 -113 -114 -125q-49 0 -83 36t-34 85z" />
<glyph unicode="&#xa9;" horiz-adv-x="1640" d="M63 725q0 260 179 473q94 113 235 184q154 78 332 78q213 0 389 -100t281 -283q98 -174 98 -381q0 -180 -98.5 -347t-256 -270.5t-407.5 -103.5q-266 0 -446 136q-143 109 -224.5 271.5t-81.5 342.5zM236 709q0 -256 164.5 -430.5t418.5 -174.5q150 0 280 75t212 202 q90 141 90 336q0 162 -74 302t-207 224t-293 84q-258 0 -424.5 -179t-166.5 -439zM416 725q0 240 170 373q92 74 245 73q139 0 250 -81q119 -90 131 -226h-147q-43 168 -234 168q-127 0 -194 -96q-61 -84 -62 -215q0 -125 68 -215q76 -98 197 -98q190 0 227 176h141 q-25 -150 -125 -233t-252 -83q-188 0 -305 138q-110 129 -110 319z" />
<glyph unicode="&#xaa;" horiz-adv-x="684" d="M12 1155q0 143 101 227q92 78 239 78q133 0 221 -67q98 -76 99 -205v-332h-127v340q0 78 -64 121q-55 35 -137 35q-76 0 -137 -45q-68 -49 -68 -152q0 -86 57.5 -146.5t143.5 -60.5q92 0 164 84v-133q-88 -55 -172 -55q-129 0 -224.5 91t-95.5 220z" />
<glyph unicode="&#xab;" horiz-adv-x="1024" d="M131 492l256 313l154 4l-252 -317l264 -316h-158zM479 496l256 313h158l-256 -317l266 -316h-160z" />
<glyph unicode="&#xac;" horiz-adv-x="1228" d="M125 616v160h983v-563h-164v403h-819z" />
<glyph unicode="&#xad;" horiz-adv-x="669" d="M55 408v163h461v-163h-461z" />
<glyph unicode="&#xae;" horiz-adv-x="1640" d="M63 739q0 123 48 246q86 223 273 351t425 128q205 0 382 -103.5t279.5 -279.5t102.5 -356q0 -346 -234 -555q-213 -190 -530 -190q-342 0 -547 233q-199 227 -199 526zM236 717q0 -256 164.5 -432t418.5 -176q195 0 350.5 117.5t210.5 303.5q25 86 25 195q0 156 -81 293 t-217 223t-302 86q-252 0 -414 -182q-155 -174 -155 -428zM528 293v848h340q143 0 213 -54q78 -59 78 -198q0 -201 -223 -225l240 -371h-152l-219 366h-133v-366h-144zM668 776h180q172 0 172 131q0 121 -189 121h-163v-252z" />
<glyph unicode="&#xb1;" horiz-adv-x="1228" d="M125 -4v156h983v-156h-983zM125 520v160h412v297h159v-297h412v-160h-412v-297h-159v297h-412z" />
<glyph unicode="&#xb2;" horiz-adv-x="679" d="M12 664q6 55 39 79l385 281q88 63 88 180q0 66 -57 105q-49 35 -119 34q-72 0 -126 -45t-54 -114q0 -86 55.5 -130t112.5 -50l-123 -80q-184 74 -184 256q0 119 98 202q92 78 213 78q195 0 272 -131q33 -57 39 -112q0 -113 -43 -187q-39 -66 -137 -137l-274 -201h458 v-112h-495q-140 0 -148 84z" />
<glyph unicode="&#xb3;" horiz-adv-x="679" d="M33 584v112h295q188 0 188 160q0 139 -219 139h-150v92l297 240l-393 4v113h414q131 0 131 -92q0 -55 -141 -166l-95 -74q125 -6 207 -65q92 -68 92 -187q0 -125 -76.5 -200.5t-201.5 -75.5h-348z" />
<glyph unicode="&#xb4;" horiz-adv-x="567" d="M147 1100l185 297h223l-262 -297h-146z" />
<glyph unicode="&#xb5;" horiz-adv-x="1024" d="M92 -444v1427h180v-575q0 -104 69 -180t171 -76q104 0 172 75.5t68 180.5v575h180v-575q0 -188 -116 -308t-304 -120q-143 0 -240 71v-495h-180z" />
<glyph unicode="&#x3bc;" horiz-adv-x="1024" d="M92 -444v1427h180v-575q0 -104 69 -180t171 -76q104 0 172 75.5t68 180.5v575h180v-575q0 -188 -116 -308t-304 -120q-143 0 -240 71v-495h-180z" />
<glyph unicode="&#xb6;" horiz-adv-x="1228" d="M55 1036q0 201 123 301q113 94 318 95h571v-1713h-170v1581h-229v-1581h-172v953q-174 0 -301 92q-140 104 -140 272z" />
<glyph unicode="&#xb7;" horiz-adv-x="569" d="M184 618v205h205v-205h-205z" />
<glyph unicode="&#x2219;" horiz-adv-x="569" d="M184 618v205h205v-205h-205z" />
<glyph unicode="&#xb8;" horiz-adv-x="567" d="M63 -395l37 76q61 -25 131 -25q121 0 121 88q0 70 -104 80q-27 -6 -72 -25l-41 45l133 176h101l-101 -133l68 13q76 0 124 -44t48 -120q0 -92 -82 -139q-66 -37 -166 -37q-107 0 -197 45z" />
<glyph unicode="&#xb9;" horiz-adv-x="679" d="M129 1331l31 113h272v-860h-143v747h-160z" />
<glyph unicode="&#xba;" horiz-adv-x="684" d="M4 1153q0 137 96.5 224t235.5 87q135 0 241.5 -82t106.5 -237q0 -125 -107.5 -211t-236.5 -86q-135 0 -235.5 87t-100.5 218zM135 1155q0 -88 58.5 -143.5t146.5 -55.5q90 0 149.5 55.5t59.5 143.5q0 96 -56.5 148.5t-152.5 52.5q-92 0 -148.5 -54.5t-56.5 -146.5z" />
<glyph unicode="&#xbb;" horiz-adv-x="1024" d="M125 176l262 316l-252 317h158l248 -317l-260 -316h-156zM471 176l264 316l-252 317h160l250 -322l-268 -311h-154z" />
<glyph unicode="&#xbc;" horiz-adv-x="1708" d="M129 1331l31 113h272v-860h-143v747h-160zM336 -25l885 1485h143l-889 -1485h-139zM948 264q6 49 35 96l301 500h152l-336 -553h272v369l135 196l9 5v-570h129v-110h-129v-197h-144v197h-340q-74 -1 -84 67z" />
<glyph unicode="&#xbd;" horiz-adv-x="1708" d="M129 1331l31 113h272v-860h-143v747h-160zM311 -25l885 1485h143l-886 -1485h-142zM1032 72q0 35 29 71.5t63 53.5l328 235q100 72 100 172q0 70 -49 115t-119 45q-188 0 -188 -180q0 -63 47 -107.5t121 -56.5l-127 -76q-184 66 -184 256q0 127 102 205q94 72 225 72 q121 0 215 -74q100 -80 101 -199q0 -156 -215 -307l-256 -180l458 -4v-113h-520q-123 0 -131 72z" />
<glyph unicode="&#xbe;" horiz-adv-x="1708" d="M33 584v112h295q188 0 188 160q0 139 -219 139h-150v92l297 240l-393 4v113h414q119 0 119 -84q0 -90 -101 -152l-123 -96q125 -6 207 -65q92 -68 92 -187q0 -125 -76.5 -200.5t-201.5 -75.5h-348zM395 -25l889 1485h139l-882 -1485h-146zM948 264q6 49 35 96l301 500 h152l-336 -553h272v369l135 196l9 5v-570h129v-110h-129v-197h-144v197h-340q-72 -1 -84 67z" />
<glyph unicode="&#xbf;" horiz-adv-x="907" d="M12 -43q0 162 101.5 287t259.5 147v273h180v-459l-78 4q-111 6 -201 -66q-74 -59 -73 -198q25 -233 239 -234q223 0 224 277h196q0 -166 -86 -279q-135 -178 -354 -178q-133 0 -270.5 114.5t-137.5 311.5zM336 881q0 59 36 97t93 38q127 0 127 -127q0 -117 -127 -129 q-51 0 -90 35t-39 86z" />
<glyph unicode="&#xc0;" d="M-92 2343h161l23 -104q41 -94 117 -162q86 -76 178 -76l20 2l25 4v336h166v-336l22 -4l19 -2q94 0 174 70.5t121 167.5l22 104h162q-57 -186 -197 -319l-67 -50q86 -16 146.5 -69t68.5 -135v-324h-154v291q0 29 -22 57q-55 55 -133 56h-162v-404h-166v404h-166 q-53 0 -100 -29q-55 -35 -56 -84v-291h-153v324q25 174 215 204l-68 50q-137 129 -196 319zM76 4v901q0 180 131 299q125 113 305 113q176 0 305 -121q137 -129 137 -291v-901h-170v578h-467v166h467v135q0 133 -69.5 207.5t-202.5 74.5q-129 0 -199.5 -75.5t-70.5 -206.5 v-879h-166z" />
<glyph unicode="&#xc1;" d="M438 1446l185 297h223l-262 -297h-146zM76 4v901q0 180 131 299q125 113 305 113q176 0 305 -121q137 -129 137 -291v-901h-170v578h-467v166h467v135q0 133 -69.5 207.5t-202.5 74.5q-129 0 -199.5 -75.5t-70.5 -206.5v-879h-166z" />
<glyph unicode="&#xc2;" d="M213 1446l209 293h188l203 -293h-164l-135 196l-133 -196h-168zM76 4v901q0 180 131 299q125 113 305 113q176 0 305 -121q137 -129 137 -291v-901h-170v578h-467v166h467v135q0 133 -69.5 207.5t-202.5 74.5q-129 0 -199.5 -75.5t-70.5 -206.5v-879h-166z" />
<glyph unicode="&#xc3;" d="M164 1446q0 74 50 145.5t152 77.5q53 4 152 -38q106 -45 141 -45l39 16q59 25 66 84h96q-10 -86 -60 -150q-57 -74 -137 -73q-74 0 -179 37.5t-142 37.5q-31 0 -54.5 -29.5t-23.5 -62.5h-100zM76 4v901q0 180 131 299q125 113 305 113q176 0 305 -121q137 -129 137 -291 v-901h-170v578h-467v166h467v135q0 133 -69.5 207.5t-202.5 74.5q-129 0 -199.5 -75.5t-70.5 -206.5v-879h-166z" />
<glyph unicode="&#xc4;" d="M233 1567q0 49 34 79.5t83 30.5q115 0 115 -104q0 -53 -31 -87t-84 -40q-117 0 -117 121zM561 1567q0 49 33.5 79.5t83.5 30.5q115 0 114 -106q0 -113 -114 -125q-49 0 -83 36t-34 85zM76 4v901q0 180 131 299q125 113 305 113q176 0 305 -121q137 -129 137 -291v-901 h-170v578h-467v166h467v135q0 133 -69.5 207.5t-202.5 74.5q-129 0 -199.5 -75.5t-70.5 -206.5v-879h-166z" />
<glyph unicode="&#xc5;" d="M305 1514q0 86 61.5 148.5t147.5 62.5q94 0 150.5 -58.5t56.5 -152.5t-61.5 -149.5t-137.5 -55.5q-92 0 -154.5 56.5t-62.5 148.5zM624 1514q0 115 -114 114q-104 0 -105 -106q0 -49 30 -83t79 -34q47 0 78.5 31t31.5 78zM76 4v901q0 180 131 299q125 113 305 113 q176 0 305 -121q137 -129 137 -291v-901h-170v578h-467v166h467v135q0 133 -69.5 207.5t-202.5 74.5q-129 0 -199.5 -75.5t-70.5 -206.5v-879h-166z" />
<glyph unicode="&#xc7;" horiz-adv-x="1134" d="M718 -575l37 76q61 -25 131 -25q121 0 121 88q0 70 -104 80q-27 -6 -72 -25l-41 45l133 176h101l-101 -133l68 13q76 0 124 -44t48 -120q0 -92 -82 -139q-66 -37 -166 -37q-107 0 -197 45zM72 358v947h178v-951q0 -78 46 -126t126 -48h223q82 0 128 46t46 128v951h176 v-969q0 -113 -55 -205q51 -35 87 -113.5t36 -191.5h-180q0 178 -170 178h-367q-141 0 -213 113q-61 94 -61 241z" />
<glyph unicode="&#xc8;" horiz-adv-x="942" d="M162 2343h161l23 -104q41 -94 117 -162q86 -76 178 -76l20 2l25 4v336h166v-336l22 -4l19 -2q94 0 174 70.5t121 167.5l22 104h162q-57 -186 -197 -319l-67 -50q86 -16 146.5 -69t68.5 -135v-324h-154v291q0 29 -22 57q-55 55 -133 56h-162v-404h-166v404h-166 q-53 0 -100 -29q-55 -35 -56 -84v-291h-153v324q25 174 215 204l-68 50q-137 129 -196 319zM49 649q-1 14 -1 28q0 123 65 261q61 135 182 223q135 80 178 101q102 47 199 47h188v-174l-84 4q-14 1 -27 0q-175 0 -331 -97q-156 -98 -185 -288h631v-170h-631q0 -115 80 -215 q156 -195 412 -195h139v-170h-139l-141 8q-92 6 -172 45q-180 88 -283 271q-53 92 -70 184l-6 70z" />
<glyph unicode="&#xc9;" horiz-adv-x="942" d="M692 1446l185 297h223l-262 -297h-146zM49 649q-1 14 -1 28q0 123 65 261q61 135 182 223q135 80 178 101q102 47 199 47h188v-174l-84 4q-14 1 -27 0q-175 0 -331 -97q-156 -98 -185 -288h631v-170h-631q0 -115 80 -215q156 -195 412 -195h139v-170h-139l-141 8 q-92 6 -172 45q-180 88 -283 271q-53 92 -70 184l-6 70z" />
<glyph unicode="&#xca;" horiz-adv-x="567" />
<glyph unicode="&#xcb;" horiz-adv-x="942" d="M487 1567q0 49 34 79.5t83 30.5q115 0 115 -104q0 -53 -31 -87t-84 -40q-117 0 -117 121zM815 1567q0 49 33.5 79.5t83.5 30.5q115 0 114 -106q0 -113 -114 -125q-49 0 -83 36t-34 85zM49 649q-1 14 -1 28q0 123 65 261q61 135 182 223q135 80 178 101q102 47 199 47h188 v-174l-84 4q-14 1 -27 0q-175 0 -331 -97q-156 -98 -185 -288h631v-170h-631q0 -115 80 -215q156 -195 412 -195h139v-170h-139l-141 8q-92 6 -172 45q-180 88 -283 271q-53 92 -70 184l-6 70z" />
<glyph unicode="&#xcc;" horiz-adv-x="1146" d="M265 2343h161l23 -104q41 -94 117 -162q86 -76 178 -76l20 2l25 4v336h166v-336l22 -4l19 -2q94 0 174 70.5t121 167.5l22 104h162q-57 -186 -197 -319l-67 -50q86 -16 146.5 -69t68.5 -135v-324h-154v291q0 29 -22 57q-55 55 -133 56h-162v-404h-166v404h-166 q-53 0 -100 -29q-55 -35 -56 -84v-291h-153v324q25 174 215 204l-68 50q-137 129 -196 319zM68 113v1192h170v-1049l505 1004q12 25 58 38q37 14 69 15q61 0 101.5 -38t40.5 -118v-1153h-170v1049h-8l-494 -990q-39 -78 -137 -77q-55 0 -95 36t-40 91z" />
<glyph unicode="&#xcd;" horiz-adv-x="1146" d="M798 1446l185 297h223l-262 -297h-146zM68 113v1192h170v-1049l505 1004q12 25 58 38q37 14 69 15q61 0 101.5 -38t40.5 -118v-1153h-170v1049h-8l-494 -990q-39 -78 -137 -77q-55 0 -95 36t-40 91z" />
<glyph unicode="&#xce;" horiz-adv-x="1146" d="M570 1446l209 293h188l203 -293h-164l-135 196l-133 -196h-168zM68 113v1192h170v-1049l505 1004q12 25 58 38q37 14 69 15q61 0 101.5 -38t40.5 -118v-1153h-170v1049h-8l-494 -990q-39 -78 -137 -77q-55 0 -95 36t-40 91z" />
<glyph unicode="&#xcf;" horiz-adv-x="1146" d="M590 1567q0 49 34 79.5t83 30.5q115 0 115 -104q0 -53 -31 -87t-84 -40q-117 0 -117 121zM918 1567q0 49 33.5 79.5t83.5 30.5q115 0 114 -106q0 -113 -114 -125q-49 0 -83 36t-34 85zM68 113v1192h170v-1049l505 1004q12 25 58 38q37 14 69 15q61 0 101.5 -38t40.5 -118 v-1153h-170v1049h-8l-494 -990q-39 -78 -137 -77q-55 0 -95 36t-40 91z" />
<glyph unicode="&#xd1;" horiz-adv-x="1136" d="M195 1446q0 74 50 145.5t152 77.5q53 4 152 -38q106 -45 141 -45l39 16q59 25 66 84h96q-10 -86 -60 -150q-57 -74 -137 -73q-74 0 -179 37.5t-142 37.5q-31 0 -54.5 -29.5t-23.5 -62.5h-100zM80 0v1305h176v-476h569v476h179v-1305h-179v664h-569v-664h-176z" />
<glyph unicode="&#xd2;" horiz-adv-x="1499" d="M113 2343h161l23 -104q41 -94 117 -162q86 -76 178 -76l20 2l25 4v336h166v-336l22 -4l19 -2q94 0 174 70.5t121 167.5l22 104h162q-57 -186 -197 -319l-67 -50q86 -16 146.5 -69t68.5 -135v-324h-154v291q0 29 -22 57q-55 55 -133 56h-162v-404h-166v404h-166 q-53 0 -100 -29q-55 -35 -56 -84v-291h-153v324q25 174 215 204l-68 50q-137 129 -196 319zM35 641q0 186 88 343t246.5 248t347.5 91q176 0 330.5 -91t243.5 -246t89 -345v-27q0 -242 -196.5 -430t-466.5 -188q-186 0 -340 82q-162 84 -252 239q-90 150 -90 324zM211 649 l4 -4q0 -195 150.5 -342t351.5 -147q121 0 229.5 64.5t176 169t79.5 220.5v43q0 199 -142 355.5t-339 156.5q-133 0 -252 -73.5t-188.5 -192.5t-69.5 -250z" />
<glyph unicode="&#xd3;" horiz-adv-x="1499" d="M643 1446l185 297h223l-262 -297h-146zM35 641q0 186 88 343t246.5 248t347.5 91q176 0 330.5 -91t243.5 -246t89 -345v-27q0 -242 -196.5 -430t-466.5 -188q-186 0 -340 82q-162 84 -252 239q-90 150 -90 324zM211 649l4 -4q0 -195 150.5 -342t351.5 -147 q121 0 229.5 64.5t176 169t79.5 220.5v43q0 199 -142 355.5t-339 156.5q-133 0 -252 -73.5t-188.5 -192.5t-69.5 -250z" />
<glyph unicode="&#xd4;" horiz-adv-x="1499" d="M418 1446l209 293h188l203 -293h-164l-135 196l-133 -196h-168zM35 641q0 186 88 343t246.5 248t347.5 91q176 0 330.5 -91t243.5 -246t89 -345v-27q0 -242 -196.5 -430t-466.5 -188q-186 0 -340 82q-162 84 -252 239q-90 150 -90 324zM211 649l4 -4q0 -195 150.5 -342 t351.5 -147q121 0 229.5 64.5t176 169t79.5 220.5v43q0 199 -142 355.5t-339 156.5q-133 0 -252 -73.5t-188.5 -192.5t-69.5 -250z" />
<glyph unicode="&#xd5;" horiz-adv-x="1499" d="M369 1446q0 74 50 145.5t152 77.5q53 4 152 -38q106 -45 141 -45l39 16q59 25 66 84h96q-10 -86 -60 -150q-57 -74 -137 -73q-74 0 -179 37.5t-142 37.5q-31 0 -54.5 -29.5t-23.5 -62.5h-100zM35 641q0 186 88 343t246.5 248t347.5 91q176 0 330.5 -91t243.5 -246 t89 -345v-27q0 -242 -196.5 -430t-466.5 -188q-186 0 -340 82q-162 84 -252 239q-90 150 -90 324zM211 649l4 -4q0 -195 150.5 -342t351.5 -147q121 0 229.5 64.5t176 169t79.5 220.5v43q0 199 -142 355.5t-339 156.5q-133 0 -252 -73.5t-188.5 -192.5t-69.5 -250z" />
<glyph unicode="&#xd6;" horiz-adv-x="1499" d="M438 1567q0 49 34 79.5t83 30.5q115 0 115 -104q0 -53 -31 -87t-84 -40q-117 0 -117 121zM766 1567q0 49 33.5 79.5t83.5 30.5q115 0 114 -106q0 -113 -114 -125q-49 0 -83 36t-34 85zM35 641q0 186 88 343t246.5 248t347.5 91q176 0 330.5 -91t243.5 -246t89 -345v-27 q0 -242 -196.5 -430t-466.5 -188q-186 0 -340 82q-162 84 -252 239q-90 150 -90 324zM211 649l4 -4q0 -195 150.5 -342t351.5 -147q121 0 229.5 64.5t176 169t79.5 220.5v43q0 199 -142 355.5t-339 156.5q-133 0 -252 -73.5t-188.5 -192.5t-69.5 -250z" />
<glyph unicode="&#xd9;" horiz-adv-x="854" d="M-170 2343h161l23 -104q41 -94 117 -162q86 -76 178 -76l20 2l25 4v336h166v-336l22 -4l19 -2q94 0 174 70.5t121 167.5l22 104h162q-57 -186 -197 -319l-67 -50q86 -16 146.5 -69t68.5 -135v-324h-154v291q0 29 -22 57q-55 55 -133 56h-162v-404h-166v404h-166 q-53 0 -100 -29q-55 -35 -56 -84v-291h-153v324q25 174 215 204l-68 50q-137 129 -196 319zM4 1305h184l252 -750h21l233 750h170l-366 -1135q-55 -170 -174 -170h-199v166h113q86 0 86 86q0 78 -33 178z" />
<glyph unicode="&#xda;" horiz-adv-x="854" d="M360 1446l185 297h223l-262 -297h-146zM4 1305h184l252 -750h21l233 750h170l-366 -1135q-55 -170 -174 -170h-199v166h113q86 0 86 86q0 78 -33 178z" />
<glyph unicode="&#xdb;" horiz-adv-x="854" d="M136 1446l209 293h188l203 -293h-164l-135 196l-133 -196h-168zM4 1305h184l252 -750h21l233 750h170l-366 -1135q-55 -170 -174 -170h-199v166h113q86 0 86 86q0 78 -33 178z" />
<glyph unicode="&#xdc;" horiz-adv-x="854" d="M156 1567q0 49 34 79.5t83 30.5q115 0 115 -104q0 -53 -31 -87t-84 -40q-117 0 -117 121zM484 1567q0 49 33.5 79.5t83.5 30.5q115 0 114 -106q0 -113 -114 -125q-49 0 -83 36t-34 85zM4 1305h184l252 -750h21l233 750h170l-366 -1135q-55 -170 -174 -170h-199v166h113 q86 0 86 86q0 78 -33 178z" />
<glyph unicode="&#xdd;" horiz-adv-x="1015" d="M569 1446l185 297h223l-262 -297h-146zM84 8v166h524q117 0 140 121v18q0 39 -23 93q-18 45 -70 77q-154 100 -440 252q-129 115 -129 242l8 49q14 80 62 145q104 141 260 142h454v-178h-471q-51 0 -91 -49.5t-40 -100.5q0 -80 90 -129l392 -215q119 -66 161 -213 q12 -43 13 -88q0 -123 -78 -231q-96 -100 -219 -101h-543z" />
<glyph unicode="&#xe0;" horiz-adv-x="1110" d="M-55 1925h161l23 -104q41 -94 117 -162q86 -76 178 -76l20 2l25 4v336h166v-336l22 -4l19 -2q94 0 174 70.5t121 167.5l22 104h162q-57 -186 -197 -319l-67 -50q86 -16 146.5 -69t68.5 -135v-324h-154v291q0 29 -22 57q-55 55 -133 56h-162v-404h-166v404h-166 q-53 0 -100 -29q-55 -35 -56 -84v-291h-153v324q25 174 215 204l-68 50q-137 129 -196 319zM63 444q0 205 150 347q119 115 330 114h16q98 0 194.5 -55t156 -138t59.5 -169v-539h-158v512q0 143 -154 209q-72 29 -145 29q-152 0 -229 -105q-57 -94 -58 -188q0 -104 56 -193 q59 -94 153 -112l31 -6l29 -5l26 -2h12q51 0 113 31q53 35 86 78v-189q-109 -68 -233 -67q-139 0 -252 83t-156 216q-27 83 -27 149z" />
<glyph unicode="&#xe1;" horiz-adv-x="1110" d="M479 1028l185 297h223l-262 -297h-146zM63 444q0 205 150 347q119 115 330 114h16q98 0 194.5 -55t156 -138t59.5 -169v-539h-158v512q0 143 -154 209q-72 29 -145 29q-152 0 -229 -105q-57 -94 -58 -188q0 -104 56 -193q59 -94 153 -112l31 -6l29 -5l26 -2h12 q51 0 113 31q53 35 86 78v-189q-109 -68 -233 -67q-139 0 -252 83t-156 216q-27 83 -27 149z" />
<glyph unicode="&#xe2;" horiz-adv-x="1110" d="M250 1028l209 293h188l203 -293h-164l-135 196l-133 -196h-168zM63 444q0 205 150 347q119 115 330 114h16q98 0 194.5 -55t156 -138t59.5 -169v-539h-158v512q0 143 -154 209q-72 29 -145 29q-152 0 -229 -105q-57 -94 -58 -188q0 -104 56 -193q59 -94 153 -112l31 -6 l29 -5l26 -2h12q51 0 113 31q53 35 86 78v-189q-109 -68 -233 -67q-139 0 -252 83t-156 216q-27 83 -27 149z" />
<glyph unicode="&#xe3;" horiz-adv-x="1110" d="M203 1028q0 74 50 145.5t152 77.5q53 4 152 -38q106 -45 141 -45l39 16q59 25 66 84h96q-10 -86 -60 -150q-57 -74 -137 -73q-74 0 -179 37.5t-142 37.5q-31 0 -54.5 -29.5t-23.5 -62.5h-100zM63 444q0 205 150 347q119 115 330 114h16q98 0 194.5 -55t156 -138 t59.5 -169v-539h-158v512q0 143 -154 209q-72 29 -145 29q-152 0 -229 -105q-57 -94 -58 -188q0 -104 56 -193q59 -94 153 -112l31 -6l29 -5l26 -2h12q51 0 113 31q53 35 86 78v-189q-109 -68 -233 -67q-139 0 -252 83t-156 216q-27 83 -27 149z" />
<glyph unicode="&#xe4;" horiz-adv-x="1110" d="M270 1149q0 49 34 79.5t83 30.5q115 0 115 -104q0 -53 -31 -87t-84 -40q-117 0 -117 121zM598 1149q0 49 33.5 79.5t83.5 30.5q115 0 114 -106q0 -113 -114 -125q-49 0 -83 36t-34 85zM63 444q0 205 150 347q119 115 330 114h16q98 0 194.5 -55t156 -138t59.5 -169v-539 h-158v512q0 143 -154 209q-72 29 -145 29q-152 0 -229 -105q-57 -94 -58 -188q0 -104 56 -193q59 -94 153 -112l31 -6l29 -5l26 -2h12q51 0 113 31q53 35 86 78v-189q-109 -68 -233 -67q-139 0 -252 83t-156 216q-27 83 -27 149z" />
<glyph unicode="&#xe5;" horiz-adv-x="1110" d="M342 1233q0 86 61.5 148.5t147.5 62.5q94 0 150.5 -58.5t56.5 -152.5t-61.5 -149.5t-137.5 -55.5q-92 0 -154.5 56.5t-62.5 148.5zM661 1233q0 115 -114 114q-104 0 -105 -106q0 -49 30 -83t79 -34q47 0 78.5 31t31.5 78zM63 444q0 205 150 347q119 115 330 114h16 q98 0 194.5 -55t156 -138t59.5 -169v-539h-158v512q0 143 -154 209q-72 29 -145 29q-152 0 -229 -105q-57 -94 -58 -188q0 -104 56 -193q59 -94 153 -112l31 -6l29 -5l26 -2h12q51 0 113 31q53 35 86 78v-189q-109 -68 -233 -67q-139 0 -252 83t-156 216q-27 83 -27 149z " />
<glyph unicode="&#xe7;" horiz-adv-x="972" d="M561 -522l37 76q61 -25 131 -25q121 0 121 88q0 70 -104 80q-27 -6 -72 -25l-41 45l133 176h101l-101 -133l68 13q76 0 124 -44t48 -120q0 -92 -82 -139q-66 -37 -166 -37q-107 0 -197 45zM59 246v655h166v-672q0 -104 137 -104h158q74 0 107 20q41 25 41 93v663h161 v-676q0 -76 -49 -135q88 -53 109 -131q8 -31 8 -80h-162q0 121 -147 121h-293q-111 0 -173.5 66.5t-62.5 179.5z" />
<glyph unicode="&#xe8;" d="M-129 1937h161l23 -104q41 -94 117 -162q86 -76 178 -76l20 2l25 4v336h166v-336l22 -4l19 -2q94 0 174 70.5t121 167.5l22 104h162q-57 -186 -197 -319l-67 -50q86 -16 146.5 -69t68.5 -135v-324h-154v291q0 29 -22 57q-55 55 -133 56h-162v-404h-166v404h-166 q-53 0 -100 -29q-55 -35 -56 -84v-291h-153v324q25 174 215 204l-68 50q-137 129 -196 319zM59 412q0 76 23 180q41 190 203 278q86 47 180 48h24q145 0 269.5 -76t183.5 -205l-588 -340l-75 133l434 248q-80 92 -215 92q-90 0 -164 -48t-105 -138l-18 -109q0 -90 47 -172 t127 -119q72 -33 135 -32q160 0 248 129q47 70 47 137l162 -33q-12 -111 -81 -203t-170 -137t-216 -45q-145 0 -258 72q-61 39 -123 139q-66 109 -66 170l-2 14z" />
<glyph unicode="&#xe9;" horiz-adv-x="2048" />
<glyph unicode="&#xea;" d="M177 1041l209 293h188l203 -293h-164l-135 196l-133 -196h-168zM59 412q0 76 23 180q41 190 203 278q86 47 180 48h24q145 0 269.5 -76t183.5 -205l-588 -340l-75 133l434 248q-80 92 -215 92q-90 0 -164 -48t-105 -138l-18 -109q0 -90 47 -172t127 -119q72 -33 135 -32 q160 0 248 129q47 70 47 137l162 -33q-12 -111 -81 -203t-170 -137t-216 -45q-145 0 -258 72q-61 39 -123 139q-66 109 -66 170l-2 14z" />
<glyph unicode="&#xeb;" d="M197 1161q0 49 34 79.5t83 30.5q115 0 115 -104q0 -53 -31 -87t-84 -40q-117 0 -117 121zM525 1161q0 49 33.5 79.5t83.5 30.5q115 0 114 -106q0 -113 -114 -125q-49 0 -83 36t-34 85zM59 412q0 76 23 180q41 190 203 278q86 47 180 48h24q145 0 269.5 -76t183.5 -205 l-588 -340l-75 133l434 248q-80 92 -215 92q-90 0 -164 -48t-105 -138l-18 -109q0 -90 47 -172t127 -119q72 -33 135 -32q160 0 248 129q47 70 47 137l162 -33q-12 -111 -81 -203t-170 -137t-216 -45q-145 0 -258 72q-61 39 -123 139q-66 109 -66 170l-2 14z" />
<glyph unicode="&#xec;" horiz-adv-x="2048" d="M-604 1925h161l23 -104q41 -94 117 -162q86 -76 178 -76l20 2l25 4v336h166v-336l22 -4l19 -2q94 0 174 70.5t121 167.5l22 104h162q-57 -186 -197 -319l-67 -50q86 -16 146.5 -69t68.5 -135v-324h-154v291q0 29 -22 57q-55 55 -133 56h-162v-404h-166v404h-166 q-53 0 -100 -29q-55 -35 -56 -84v-291h-153v324q25 174 215 204l-68 50q-137 129 -196 319z" />
<glyph unicode="&#xed;" horiz-adv-x="2048" />
<glyph unicode="&#xee;" horiz-adv-x="2048" d="M-299 1028l209 293h188l203 -293h-164l-135 196l-133 -196h-168z" />
<glyph unicode="&#xef;" horiz-adv-x="2048" d="M-279 1149q0 49 34 79.5t83 30.5q115 0 115 -104q0 -53 -31 -87t-84 -40q-117 0 -117 121zM49 1149q0 49 33.5 79.5t83.5 30.5q115 0 114 -106q0 -113 -114 -125q-49 0 -83 36t-34 85z" />
<glyph unicode="&#xf1;" horiz-adv-x="970" d="M95 1028q0 74 50 145.5t152 77.5q53 4 152 -38q106 -45 141 -45l39 16q59 25 66 84h96q-10 -86 -60 -150q-57 -74 -137 -73q-74 0 -179 37.5t-142 37.5q-31 0 -54.5 -29.5t-23.5 -62.5h-100zM59 4v897h166v-364h439v364h161v-897h-161v365h-439v-365h-166z" />
<glyph unicode="&#xf2;" horiz-adv-x="1067" d="M-116 1925h161l23 -104q41 -94 117 -162q86 -76 178 -76l20 2l25 4v336h166v-336l22 -4l19 -2q94 0 174 70.5t121 167.5l22 104h162q-57 -186 -197 -319l-67 -50q86 -16 146.5 -69t68.5 -135v-324h-154v291q0 29 -22 57q-55 55 -133 56h-162v-404h-166v404h-166 q-53 0 -100 -29q-55 -35 -56 -84v-291h-153v324q25 174 215 204l-68 50q-137 129 -196 319zM37 453q0 291 219 401q100 51 233 51q197 0 325 -126t128 -326q0 -125 -57.5 -230.5t-163 -164t-232.5 -58.5q-276 0 -393 207q-59 105 -59 246zM203 438q0 -176 141 -256 q61 -35 145 -35q127 0 207 82t80 209q0 178 -139 262q-68 39 -148 39q-127 0 -206.5 -87t-79.5 -214z" />
<glyph unicode="&#xf3;" horiz-adv-x="1067" d="M417 1028l185 297h223l-262 -297h-146zM37 453q0 291 219 401q100 51 233 51q197 0 325 -126t128 -326q0 -125 -57.5 -230.5t-163 -164t-232.5 -58.5q-276 0 -393 207q-59 105 -59 246zM203 438q0 -176 141 -256q61 -35 145 -35q127 0 207 82t80 209q0 178 -139 262 q-68 39 -148 39q-127 0 -206.5 -87t-79.5 -214z" />
<glyph unicode="&#xf4;" horiz-adv-x="1067" d="M189 1028l209 293h188l203 -293h-164l-135 196l-133 -196h-168zM37 453q0 291 219 401q100 51 233 51q197 0 325 -126t128 -326q0 -125 -57.5 -230.5t-163 -164t-232.5 -58.5q-276 0 -393 207q-59 105 -59 246zM203 438q0 -176 141 -256q61 -35 145 -35q127 0 207 82 t80 209q0 178 -139 262q-68 39 -148 39q-127 0 -206.5 -87t-79.5 -214z" />
<glyph unicode="&#xf5;" horiz-adv-x="1067" d="M142 1028q0 74 50 145.5t152 77.5q53 4 152 -38q106 -45 141 -45l39 16q59 25 66 84h96q-10 -86 -60 -150q-57 -74 -137 -73q-74 0 -179 37.5t-142 37.5q-31 0 -54.5 -29.5t-23.5 -62.5h-100zM37 453q0 291 219 401q100 51 233 51q197 0 325 -126t128 -326 q0 -125 -57.5 -230.5t-163 -164t-232.5 -58.5q-276 0 -393 207q-59 105 -59 246zM203 438q0 -176 141 -256q61 -35 145 -35q127 0 207 82t80 209q0 178 -139 262q-68 39 -148 39q-127 0 -206.5 -87t-79.5 -214z" />
<glyph unicode="&#xf6;" horiz-adv-x="1067" d="M209 1149q0 49 34 79.5t83 30.5q115 0 115 -104q0 -53 -31 -87t-84 -40q-117 0 -117 121zM537 1149q0 49 33.5 79.5t83.5 30.5q115 0 114 -106q0 -113 -114 -125q-49 0 -83 36t-34 85zM37 453q0 291 219 401q100 51 233 51q197 0 325 -126t128 -326q0 -125 -57.5 -230.5 t-163 -164t-232.5 -58.5q-276 0 -393 207q-59 105 -59 246zM203 438q0 -176 141 -256q61 -35 145 -35q127 0 207 82t80 209q0 178 -139 262q-68 39 -148 39q-127 0 -206.5 -87t-79.5 -214z" />
<glyph unicode="&#xf9;" horiz-adv-x="909" d="M-133 1925h161l23 -104q41 -94 117 -162q86 -76 178 -76l20 2l25 4v336h166v-336l22 -4l19 -2q94 0 174 70.5t121 167.5l22 104h162q-57 -186 -197 -319l-67 -50q86 -16 146.5 -69t68.5 -135v-324h-154v291q0 29 -22 57q-55 55 -133 56h-162v-404h-166v404h-166 q-53 0 -100 -29q-55 -35 -56 -84v-291h-153v324q25 174 215 204l-68 50q-137 129 -196 319zM41 901h166l264 -682h12l248 682h174l-471 -1225q-31 -80 -117 -79q-37 0 -77.5 19t-51.5 52l45 162q18 -45 68 -45q25 0 31 14l57 156z" />
<glyph unicode="&#xfa;" horiz-adv-x="909" d="M401 1028l185 297h223l-262 -297h-146zM41 901h166l264 -682h12l248 682h174l-471 -1225q-31 -80 -117 -79q-37 0 -77.5 19t-51.5 52l45 162q18 -45 68 -45q25 0 31 14l57 156z" />
<glyph unicode="&#xfb;" horiz-adv-x="909" d="M172 1028l209 293h188l203 -293h-164l-135 196l-133 -196h-168zM41 901h166l264 -682h12l248 682h174l-471 -1225q-31 -80 -117 -79q-37 0 -77.5 19t-51.5 52l45 162q18 -45 68 -45q25 0 31 14l57 156z" />
<glyph unicode="&#xfc;" horiz-adv-x="909" d="M192 1149q0 49 34 79.5t83 30.5q115 0 115 -104q0 -53 -31 -87t-84 -40q-117 0 -117 121zM520 1149q0 49 33.5 79.5t83.5 30.5q115 0 114 -106q0 -113 -114 -125q-49 0 -83 36t-34 85zM41 901h166l264 -682h12l248 682h174l-471 -1225q-31 -80 -117 -79q-37 0 -77.5 19 t-51.5 52l45 162q18 -45 68 -45q25 0 31 14l57 156z" />
<glyph unicode="&#xfd;" horiz-adv-x="927" d="M495 1028l185 297h223l-262 -297h-146zM98 655q0 55 31 113.5t78 91.5q63 35 129 41h467v-151h-459q-31 0 -53.5 -21.5t-22.5 -52.5q0 -35 41 -66l404 -149q61 -23 95 -82.5t34 -126.5q0 -139 -111 -211q-72 -31 -135 -37h-494v152h498q68 23 68 82q0 66 -58 86l-381 141 q-57 20 -94 74.5t-37 115.5z" />
<glyph unicode="&#xff;" horiz-adv-x="927" d="M291 1149q0 49 34 79.5t83 30.5q115 0 115 -104q0 -53 -31 -87t-84 -40q-117 0 -117 121zM619 1149q0 49 33.5 79.5t83.5 30.5q115 0 114 -106q0 -113 -114 -125q-49 0 -83 36t-34 85zM98 655q0 55 31 113.5t78 91.5q63 35 129 41h467v-151h-459q-31 0 -53.5 -21.5 t-22.5 -52.5q0 -35 41 -66l404 -149q61 -23 95 -82.5t34 -126.5q0 -139 -111 -211q-72 -31 -135 -37h-494v152h498q68 23 68 82q0 66 -58 86l-381 141q-57 20 -94 74.5t-37 115.5z" />
<glyph unicode="&#x131;" horiz-adv-x="2048" />
<glyph unicode="&#x152;" horiz-adv-x="2048" d="M-4 696v21q0 193 100.5 372t264 275t348.5 96q279 0 467 -188q88 -88 129 -189q201 352 587 353h131v-185q-180 0 -303 -49q-270 -109 -311 -371h614v-180h-612q0 -119 71.5 -228.5t180.5 -172.5q115 -70 250 -70h110v-176h-151q-236 0 -387 131q-76 63 -111 115l-74 106 q-49 -133 -196 -254q-154 -127 -395 -127q-209 0 -367 107q-147 100 -246.5 271t-99.5 343zM193 713q0 -233 151.5 -395t351.5 -162q186 0 325.5 123.5t172.5 308.5q10 63 10 129q0 154 -61 270q-66 125 -176 205q-123 88 -254 88q-145 0 -264 -78t-187.5 -210t-68.5 -279z " />
<glyph unicode="&#x153;" horiz-adv-x="1931" d="M29 475q0 276 217 436q117 84 278 84q166 0 278.5 -68.5t162.5 -150.5q94 123 185 173t239 50q334 0 507 -366l-696 -301l-63 155l508 222q-96 115 -273 114q-143 0 -227 -101t-84 -247q0 -125 108.5 -226.5t235.5 -101.5q129 0 217 86q80 78 107 211l180 -67 q-152 -406 -520 -406q-244 0 -416 234q-164 -229 -428 -230q-229 0 -372.5 149.5t-143.5 350.5zM215 487q0 -166 101.5 -253t215.5 -87q182 0 259 103q86 115 86 242q0 152 -96.5 241.5t-248.5 89.5q-137 0 -227 -98.5t-90 -237.5z" />
<glyph unicode="&#x178;" horiz-adv-x="1015" d="M364 1567q0 49 34 79.5t83 30.5q115 0 115 -104q0 -53 -31 -87t-84 -40q-117 0 -117 121zM692 1567q0 49 33.5 79.5t83.5 30.5q115 0 114 -106q0 -113 -114 -125q-49 0 -83 36t-34 85zM84 8v166h524q117 0 140 121v18q0 39 -23 93q-18 45 -70 77q-154 100 -440 252 q-129 115 -129 242l8 49q14 80 62 145q104 141 260 142h454v-178h-471q-51 0 -91 -49.5t-40 -100.5q0 -80 90 -129l392 -215q119 -66 161 -213q12 -43 13 -88q0 -123 -78 -231q-96 -100 -219 -101h-543z" />
<glyph unicode="&#x2c6;" horiz-adv-x="567" d="M-16 1100l209 293h188l203 -293h-164l-135 196l-133 -196h-168z" />
<glyph unicode="&#x2da;" horiz-adv-x="567" d="M76 1305q0 86 61.5 148.5t147.5 62.5q94 0 150.5 -58.5t56.5 -152.5t-61.5 -149.5t-137.5 -55.5q-92 0 -154.5 56.5t-62.5 148.5zM395 1305q0 115 -114 114q-104 0 -105 -106q0 -49 30 -83t79 -34q47 0 78.5 31t31.5 78z" />
<glyph unicode="&#x2dc;" horiz-adv-x="567" d="M-63 1120q0 74 50 145.5t152 77.5q53 4 152 -38q106 -45 141 -45l39 16q59 25 66 84h96q-10 -86 -60 -150q-57 -74 -137 -73q-74 0 -179 37.5t-142 37.5q-31 0 -54.5 -29.5t-23.5 -62.5h-100z" />
<glyph unicode="&#x2000;" horiz-adv-x="1171" />
<glyph unicode="&#x2001;" horiz-adv-x="2342" />
<glyph unicode="&#x2002;" horiz-adv-x="1171" />
<glyph unicode="&#x2003;" horiz-adv-x="2342" />
<glyph unicode="&#x2004;" horiz-adv-x="780" />
<glyph unicode="&#x2005;" horiz-adv-x="585" />
<glyph unicode="&#x2006;" horiz-adv-x="389" />
<glyph unicode="&#x2007;" horiz-adv-x="389" />
<glyph unicode="&#x2008;" horiz-adv-x="292" />
<glyph unicode="&#x2009;" horiz-adv-x="466" />
<glyph unicode="&#x200a;" horiz-adv-x="129" />
<glyph unicode="&#x2010;" horiz-adv-x="669" d="M55 408v163h461v-163h-461z" />
<glyph unicode="&#x2011;" horiz-adv-x="669" d="M55 408v163h461v-163h-461z" />
<glyph unicode="&#x2012;" horiz-adv-x="669" d="M55 408v163h461v-163h-461z" />
<glyph unicode="&#x2013;" horiz-adv-x="1024" d="M0 428v127h1024v-127h-1024z" />
<glyph unicode="&#x2014;" horiz-adv-x="2048" d="M-16 549h2044l4 -129h-2044z" />
<glyph unicode="&#x2018;" horiz-adv-x="317" d="M96 1436h172l72 -416h-152z" />
<glyph unicode="&#x2019;" horiz-adv-x="339" d="M117 1024l71 412h177l-97 -412h-151z" />
<glyph unicode="&#x201c;" horiz-adv-x="827" d="M88 1436h168l76 -416h-152zM465 1436h172l76 -416h-154z" />
<glyph unicode="&#x201d;" horiz-adv-x="768" d="M80 1024l63 420h181l-101 -420h-143zM469 1024l63 420h177l-97 -420h-143z" />
<glyph unicode="&#x201e;" horiz-adv-x="796" d="M88 -209l72 414h172l-96 -414h-148zM465 -209l76 414h172l-97 -414h-151z" />
<glyph unicode="&#x2022;" horiz-adv-x="567" d="M164 492q0 51 32.5 85.5t84.5 34.5q84 0 114 -69q8 -18 8 -47q0 -53 -30.5 -88t-83.5 -35q-113 0 -125 119z" />
<glyph unicode="&#x2026;" horiz-adv-x="2048" d="M219 109q0 51 35 84.5t86 33.5q125 0 125 -123q0 -49 -38 -80.5t-87 -31.5t-85 34t-36 83zM903 104q0 53 34 88t87 35q125 0 125 -123q-14 -113 -125 -112q-47 0 -84 32.5t-37 79.5zM1587 109q0 51 33 82.5t84 31.5q55 0 90 -31.5t35 -87.5q0 -113 -117 -112 q-51 0 -88 33t-37 84z" />
<glyph unicode="&#x202f;" horiz-adv-x="466" />
<glyph unicode="&#x2039;" horiz-adv-x="679" d="M139 492l256 317h158l-256 -317l266 -316h-155z" />
<glyph unicode="&#x203a;" horiz-adv-x="679" d="M117 176l270 316l-256 317h158l252 -322l-269 -311h-155z" />
<glyph unicode="&#x205f;" horiz-adv-x="585" />
<glyph unicode="&#x2122;" horiz-adv-x="2027" d="M104 1305v127h680v-127h-252v-717h-172v717h-256zM940 588v844h260l227 -601l230 601h256v-844h-172v676l-256 -676h-117l-256 667v-667h-172z" />
<glyph unicode="&#xe000;" horiz-adv-x="900" d="M0 900h900v-900h-900v900z" />
<glyph unicode="&#xfb01;" horiz-adv-x="2189" d="M1284 76v825h166v-655l383 622q6 18 47 31q33 10 58 10q113 0 112 -110v-799h-161v672l-381 -631q-33 -53 -105 -53q-41 0 -80 24.5t-39 63.5zM37 453q0 119 62.5 224t167 166.5t222.5 61.5v400h164v-400q119 0 224.5 -62.5t167 -166t61.5 -223.5q0 -119 -61.5 -222.5 t-166 -167t-225.5 -63.5v-385h-164v385q-182 0 -317 135.5t-135 317.5zM203 438q0 -74 42 -142.5t106.5 -108.5t137.5 -40v592q-117 0 -201.5 -91t-84.5 -210zM653 147q154 0 246 150q41 68 41 141q0 119 -85 210t-202 91v-592z" />
<glyph unicode="&#xfb02;" horiz-adv-x="2195" d="M1284 0v385q0 59 29 133q88 227 301 324q61 29 174 53q102 23 207 23h55v-918h-161v750q-225 0 -390 -207q-49 -61 -49 -154v-389h-166zM37 453q0 119 62.5 224t167 166.5t222.5 61.5v400h164v-400q119 0 224.5 -62.5t167 -166t61.5 -223.5q0 -119 -61.5 -222.5 t-166 -167t-225.5 -63.5v-385h-164v385q-182 0 -317 135.5t-135 317.5zM203 438q0 -74 42 -142.5t106.5 -108.5t137.5 -40v592q-117 0 -201.5 -91t-84.5 -210zM653 147q154 0 246 150q41 68 41 141q0 119 -85 210t-202 91v-592z" />
<glyph unicode="&#xfb03;" horiz-adv-x="3414" d="M2508 76v825h166v-655l383 622q6 18 47 31q33 10 58 10q113 0 112 -110v-799h-161v672l-381 -631q-33 -53 -105 -53q-41 0 -80 24.5t-39 63.5zM1262 453q0 119 62.5 224t167 166.5t222.5 61.5v400h164v-400q119 0 224.5 -62.5t167 -166t61.5 -223.5q0 -119 -61.5 -222.5 t-166 -167t-225.5 -63.5v-385h-164v385q-182 0 -317 135.5t-135 317.5zM1428 438q0 -74 42 -142.5t106.5 -108.5t137.5 -40v592q-117 0 -201.5 -91t-84.5 -210zM1878 147q154 0 246 150q41 68 41 141q0 119 -85 210t-202 91v-592zM37 453q0 119 62.5 224t167 166.5 t222.5 61.5v400h164v-400q119 0 224.5 -62.5t167 -166t61.5 -223.5q0 -119 -61.5 -222.5t-166 -167t-225.5 -63.5v-385h-164v385q-182 0 -317 135.5t-135 317.5zM203 438q0 -74 42 -142.5t106.5 -108.5t137.5 -40v592q-117 0 -201.5 -91t-84.5 -210zM653 147q154 0 246 150 q41 68 41 141q0 119 -85 210t-202 91v-592z" />
<glyph unicode="&#xfb04;" horiz-adv-x="3420" d="M2508 0v385q0 59 29 133q88 227 301 324q61 29 174 53q102 23 207 23h55v-918h-161v750q-225 0 -390 -207q-49 -61 -49 -154v-389h-166zM1262 453q0 119 62.5 224t167 166.5t222.5 61.5v400h164v-400q119 0 224.5 -62.5t167 -166t61.5 -223.5q0 -119 -61.5 -222.5 t-166 -167t-225.5 -63.5v-385h-164v385q-182 0 -317 135.5t-135 317.5zM1428 438q0 -74 42 -142.5t106.5 -108.5t137.5 -40v592q-117 0 -201.5 -91t-84.5 -210zM1878 147q154 0 246 150q41 68 41 141q0 119 -85 210t-202 91v-592zM37 453q0 119 62.5 224t167 166.5 t222.5 61.5v400h164v-400q119 0 224.5 -62.5t167 -166t61.5 -223.5q0 -119 -61.5 -222.5t-166 -167t-225.5 -63.5v-385h-164v385q-182 0 -317 135.5t-135 317.5zM203 438q0 -74 42 -142.5t106.5 -108.5t137.5 -40v592q-117 0 -201.5 -91t-84.5 -210zM653 147q154 0 246 150 q41 68 41 141q0 119 -85 210t-202 91v-592z" />
</font>
</defs>
</svg>
