<?xml version="1.0" standalone="no"?>
<!DOCTYPE svg PUBLIC "-//W3C//DTD SVG 1.1//EN" "http://www.w3.org/Graphics/SVG/1.1/DTD/svg11.dtd" >
<svg xmlns="http://www.w3.org/2000/svg">
<metadata>
This is a custom SVG webfont generated by Font Squirrel.
Copyright   : i 
</metadata>
<defs>
<font id="webfontatQ5WOEg" horiz-adv-x="0" >
<font-face units-per-em="2048" ascent="1638" descent="-410" />
<missing-glyph horiz-adv-x="937" />
<glyph unicode=" "  horiz-adv-x="937" />
<glyph unicode="&#x09;" horiz-adv-x="937" />
<glyph unicode="&#xa0;" horiz-adv-x="937" />
<glyph unicode="!" horiz-adv-x="542" d="M133 88q0 12 4 26.5t10 30.5q6 10 13.5 20.5t17.5 20.5q23 14 45.5 20.5t38.5 6.5q27 0 49.5 -12.5t34.5 -30.5q12 -12 20.5 -28.5t10.5 -32.5q2 -8 3 -15.5t1 -13.5v-8q0 -4 -2 -9q-2 -12 -6 -24t-13 -21q-16 -16 -35.5 -24t-39.5 -12q-6 -2 -14 -2h-13q-47 0 -86 31.5 t-39 76.5zM145 1163v4q0 61 35 95t78 34h5h5q41 -4 75 -37.5t34 -91.5v-16l-76 -889q0 -14 -10 -23.5t-25 -11.5h-4h-3q-15 2 -25.5 11.5t-10.5 23.5l-76 889v4v4q-2 2 -2 4z" />
<glyph unicode="&#x22;" horiz-adv-x="671" d="M137 692v565h137v-565h-137zM381 692v565h139v-565h-139z" />
<glyph unicode="#" horiz-adv-x="1081" d="M80 399v111h213l31 258h-199v106h213l45 400h111l-50 -400h248l45 400h107l-45 -400h186v-106h-203l-30 -258h182v-111h-197l-45 -395h-106l45 395h-248l-45 -395h-107l45 395h-196zM399 510h246l31 258h-246z" />
<glyph unicode="$" horiz-adv-x="1081" d="M76 942v3v3q2 129 111.5 236.5t306.5 107.5h29q15 0 32 -2h14q8 0 17 -2l14 107h76l-14 -121q4 -2 7 -3t5 -3q74 -33 120 -73t80 -105l-75 -76l-8 12l-9 12q-31 49 -63.5 86t-73.5 58l-76 -430q29 -10 54 -21l49 -20q154 -68 208 -147t54 -210q0 -150 -120 -264.5 t-384 -114.5l-31 -122h-75l30 135q-18 6 -49 21.5t-61 35.5q-35 25 -67 53.5t-50 59.5q-6 12 -10 22t-6 21l75 47q23 -29 45.5 -52.5t47.5 -41.5q23 -18 45 -33t45 -27l75 445q-182 70 -268 151.5t-96 229.5q0 4 -1 6t-1 6q0 2 -1 5t-1 5zM303 987q0 -70 44 -127t147 -78 l75 414q-57 0 -104 -11t-82 -34l-5 -5q-3 -3 -5 -7q-20 -23 -38 -51.5t-28 -57.5q0 -4 -1 -10t-1 -10q0 -6 -1 -12.5t-1 -10.5zM444 80q4 0 7.5 -1t7.5 -1q2 0 6 -1t6 -1q90 0 151.5 58.5t69.5 127.5q2 10 3 20.5t3 20.5v10v11v11q0 5 -2 9q-4 59 -46 111.5t-126 68.5z" />
<glyph unicode="%" horiz-adv-x="1751" d="M14 879q0 2 1 5t1 7v1v3q2 2 2 5v5q0 184 114 276.5t251 92.5q139 0 254 -92t115 -277q-2 -190 -109.5 -281.5t-234.5 -95.5h-8h-5h-11h-11q-135 8 -247 101.5t-112 249.5zM201 905q0 -115 46 -202t136 -87t136 85t50 188v11v11v3v4q-2 104 -44 191t-126 87 q-102 0 -150 -87t-48 -204zM383 -12l829 1315h121l-823 -1315h-127zM950 383q10 182 124 266t247 88h5h7q152 0 268.5 -89t116.5 -265v-14q0 -176 -114.5 -272.5t-251.5 -102.5h-12h-11h-3h-3q-139 2 -255 97t-118 292zM1151 335q0 -9 2 -20q8 -90 51 -164.5t125 -74.5 q2 0 5 1t5 1q4 0 6.5 1t4.5 1q74 0 115.5 88t45.5 192v12v11v5v7q-2 100 -45 183.5t-133 83.5t-136 -95.5t-46 -212.5v-19z" />
<glyph unicode="&#x26;" horiz-adv-x="1165" d="M49 459q0 156 80 266.5t205 179.5q-57 59 -85 115.5t-28 107.5q0 100 85 168t192 68h22q100 -6 168 -73.5t68 -157.5q0 -35 -13.5 -74t-40.5 -80q-20 -31 -50.5 -61.5t-69.5 -59.5l333 -475q8 16 11.5 39.5t5.5 46.5v8v8q0 27 -3 56.5t-9 58.5q-2 18 -7 36l-8 34 q0 6 -1 11t-3 11h94q18 -35 29.5 -73.5t15.5 -79.5q2 -18 3 -36t1 -36q0 -63 -13 -119.5t-36 -85.5l183 -258h-232l-61 90q-51 -49 -120 -78.5t-138 -38.5q-18 -4 -36 -5t-36 -1h-11h-12q-160 6 -299 106.5t-172 276.5q0 8 -2 17.5t-2 17.5q-2 2 -2 5v5l-4 32q-2 16 -2 28z M221 410q4 -49 25.5 -96.5t56.5 -82.5q47 -63 120 -107t159 -44q31 0 63.5 6t67.5 20q29 10 57.5 27t54.5 37l-399 598l-16 -12l-17 -13q-76 -63 -115.5 -127.5t-50.5 -140.5v-8q0 -4 -2 -8v-4v-4q-2 -6 -3 -12.5t-1 -12.5v-8v-8zM350 1212l139 -198q16 12 28.5 24.5 t21.5 24.5q20 25 29.5 48.5t9.5 43.5v8q0 4 -3 8q-2 16 -9 32t-15 24q-12 16 -29.5 27.5t-36.5 17.5q-8 2 -15 3t-13 1q-10 0 -20.5 -2t-20.5 -6q-16 -6 -34 -21t-32 -35z" />
<glyph unicode="'" horiz-adv-x="458" d="M94 772q0 6 2 14.5t6 18.5q0 6 2 11t2 11l107 385q8 39 29.5 60.5t44.5 27.5q6 0 11 1.5t9 1.5h7q3 0 8 -3q33 -6 59.5 -35.5t26.5 -68.5q0 -16 -6.5 -35.5t-20.5 -40.5l-229 -321q-4 -8 -9.5 -14.5t-9.5 -12.5q-8 -6 -14 -11t-13 -5h-2q-2 0 -2 2q-4 2 -6 5t-2 9z" />
<glyph unicode="(" horiz-adv-x="671" d="M0 459v4v4q0 297 142.5 552t408.5 300v-92q-170 -76 -256 -288t-90 -452v-12v-12v-8v-9q2 -246 92 -459.5t254 -269.5v-108q-281 84 -415 327.5t-136 522.5z" />
<glyph unicode=")" horiz-adv-x="671" d="M92 -285q164 66 247 279t83 459v20v21q-6 233 -89 440t-241 278v91q272 -66 402.5 -298.5t136.5 -498.5v-16v-15v-9v-11q-4 -301 -148.5 -556t-390.5 -288v104z" />
<glyph unicode="*" horiz-adv-x="876" d="M72 965l47 155l272 -135l-45 289h156l-49 -289l276 135l62 -155l-306 -45l213 -213l-135 -107l-141 258l-152 -258l-123 107l213 213z" />
<glyph unicode="+" horiz-adv-x="1165" d="M152 369v125h354v364h121v-364h354v-125h-354v-365h-121v365h-354z" />
<glyph unicode="," horiz-adv-x="542" d="M41 -352q0 8 5 25.5t11 43.5v-2l107 396q10 45 39.5 69.5t62.5 28.5h7h8h5h5q39 -4 69.5 -30.5t30.5 -63.5q0 -10 -3 -24.5t-11 -29.5q-2 -6 -6 -13t-11 -13l-258 -350q-20 -25 -35.5 -38.5t-21.5 -13.5l-1 1q-1 1 -1 4q0 2 -1 3t-1 3v4z" />
<glyph unicode="-" horiz-adv-x="671" d="M76 201v168l506 276v-170z" />
<glyph unicode="." horiz-adv-x="542" d="M133 88q0 12 4 26.5t10 30.5q6 10 13.5 20.5t17.5 20.5q23 14 45.5 20.5t38.5 6.5q27 0 49.5 -12.5t34.5 -30.5q12 -12 20.5 -28.5t10.5 -32.5q2 -8 3 -15.5t1 -13.5v-8q0 -4 -2 -9q-2 -12 -6 -24t-13 -21q-16 -16 -35.5 -24t-39.5 -12q-6 -2 -14 -2h-13q-47 0 -86 31.5 t-39 76.5z" />
<glyph unicode="/" horiz-adv-x="542" d="M-4 -27l412 1330h139l-414 -1330h-137z" />
<glyph unicode="0" horiz-adv-x="1081" d="M14 596q0 4 1 10t1 15v1q0 7 1 13t1 10q12 289 165 473.5t372 184.5q190 -8 296.5 -116t152.5 -235q23 -61 31.5 -120.5t8.5 -108.5q0 -57 -7 -120.5t-23 -129.5q-45 -182 -165 -332.5t-337 -150.5l-18 -2q-219 2 -349.5 165.5t-130.5 442.5zM244 662q0 -6 1 -12.5 t1 -10.5q0 -6 1 -11t1 -12q0 -45 7 -106t24 -127q27 -119 84 -218t147 -99q119 6 182.5 109.5t89.5 227.5q18 78 24.5 151t6.5 122q0 35 -4 71.5t-10 73.5q-27 147 -94.5 269t-149.5 122h-16q-117 0 -194 -141t-95 -311q-4 -25 -5 -49t-1 -49z" />
<glyph unicode="1" horiz-adv-x="1081" d="M262 1167v90l369 46v-1299h-217v1178z" />
<glyph unicode="2" horiz-adv-x="1081" d="M111 4l534 719q47 61 67.5 119.5t20.5 103.5q0 100 -73.5 159.5t-161.5 68.5h-12h-11q-86 0 -156.5 -58.5t-70.5 -181.5v-76h-107v76q0 186 113 272t252 86q12 0 23.5 -1t23.5 -1q145 -14 267 -114.5t122 -260.5q0 -70 -29.5 -154.5t-99.5 -174.5l-354 -475h491v-107 h-839z" />
<glyph unicode="3" horiz-adv-x="1081" d="M231 1151v106h658l-303 -444h76q96 0 156.5 -51t60.5 -135q0 -39 -17.5 -86t-48.5 -97l-319 -440h-246l368 520q4 4 7.5 9.5t5.5 11.5q14 25 23.5 48t9.5 42q0 37 -35 62.5t-117 25.5h-248l324 428h-355z" />
<glyph unicode="4" horiz-adv-x="1081" d="M18 414v61l568 782h213v-733h231v-110h-231v-410h-213v410h-568zM186 524h400v566z" />
<glyph unicode="5" horiz-adv-x="1081" d="M217 4l399 535q2 4 5.5 7t5.5 7q16 27 25.5 50.5t9.5 41.5q0 35 -35 56.5t-117 21.5h-279v534h627v-106h-414v-324h172q137 0 200 -53t63 -131q0 -29 -8.5 -59.5t-22.5 -63.5q-6 -14 -15 -30l-20 -31l-319 -455h-277z" />
<glyph unicode="6" horiz-adv-x="1081" d="M121 360q0 74 23.5 167.5t72.5 195.5l262 551h213l-262 -567q23 10 46.5 18t47.5 12q29 8 58.5 11.5t56.5 3.5q125 0 218 -82t93 -271q-2 -193 -129 -297t-276 -116q-10 -2 -20 -2h-19q-145 0 -265 93t-120 283zM334 330q0 -125 57.5 -193.5t126.5 -70.5h3h3h12q5 0 9 2 q72 10 132 96t60 250q0 129 -59.5 188.5t-138.5 59.5q-8 0 -15.5 -1.5t-13.5 -3.5q-66 -14 -119 -91t-53 -212q0 -2 -1 -5t-1 -7t-1 -7t-1 -5z" />
<glyph unicode="7" horiz-adv-x="1081" d="M156 1151v106h843l-540 -1253h-228l492 1147h-567z" />
<glyph unicode="8" horiz-adv-x="1081" d="M98 338q0 12 1 25.5t3 25.5q14 109 84 206t183 142q-68 37 -108 91.5t-48 109.5q-2 10 -3 19.5t-1 19.5v8v8q8 117 106.5 213.5t239.5 96.5q147 0 236.5 -84t89.5 -193q0 -18 -3.5 -36.5t-9.5 -39.5q-14 -49 -50 -96t-95 -86q127 -51 185.5 -140t64.5 -188v-11v-11v-14 q0 -7 -2 -15q-10 -156 -135 -285t-299 -129l-13 -2q-219 8 -322.5 118t-103.5 247zM338 354q0 -150 53 -224.5t117 -82.5q4 -2 8 -2h8h8q4 0 11 2q63 8 118.5 75.5t61.5 184.5v18q0 9 2 19v5v7v13v12q0 115 -45 191.5t-100 97.5l-13 4q-6 2 -12 2q-4 0 -9 1t-9 1 q-6 0 -11.5 1t-9.5 1q-70 0 -124 -82t-54 -244zM408 987q0 -80 33.5 -142.5t97.5 -62.5q2 0 4 -1t4 -1t4 -1t4 -1q59 0 90 64.5t31 142.5v45q0 78 -32 137.5t-89 59.5q-68 0 -104.5 -66.5t-42.5 -146.5v-14v-13z" />
<glyph unicode="9" horiz-adv-x="1081" d="M152 858v11q0 5 2 10v6v4q0 8 1 16t1 15q29 193 144.5 286.5t248.5 104.5h15h14q145 0 264 -99.5t119 -273.5q0 -53 -13.5 -115.5t-42.5 -130.5l-319 -688h-217l247 535q-8 -2 -17 -4.5t-19 -4.5q-31 -8 -62 -13t-55 -5q-139 0 -213 85t-92 187l-4 37q-2 19 -2 37z M354 920q0 -160 57.5 -238t127.5 -78h5h7q74 6 137.5 92t63.5 238q0 127 -48.5 195.5t-105.5 80.5q-6 0 -12 1t-13 1h-18q-82 0 -141.5 -76.5t-59.5 -215.5z" />
<glyph unicode=":" horiz-adv-x="542" d="M133 88q0 12 4 26.5t10 30.5q6 10 13.5 20.5t17.5 20.5q23 14 45.5 20.5t38.5 6.5q27 0 49.5 -12.5t34.5 -30.5q12 -12 20.5 -28.5t10.5 -32.5q2 -8 3 -15.5t1 -13.5v-8q0 -4 -2 -9q-2 -12 -6 -24t-13 -21q-16 -16 -35.5 -24t-39.5 -12q-6 -2 -14 -2h-13q-47 0 -86 31.5 t-39 76.5zM133 592q0 12 3 24.5t7 26.5q6 12 14.5 24.5t20.5 24.5q23 14 45.5 20.5t38.5 6.5q27 0 49.5 -13.5t34.5 -29.5q12 -12 20.5 -28.5t10.5 -33.5q2 -8 3 -15t1 -13v-8q0 -4 -2 -9q-2 -12 -6 -24.5t-13 -20.5q-16 -16 -35.5 -28.5t-39.5 -16.5q-6 -2 -13.5 -3 t-13.5 -1q-47 0 -86 35t-39 82z" />
<glyph unicode=";" horiz-adv-x="542" d="M41 -352q0 8 5 25.5t11 43.5v-2l107 396q10 45 39.5 69.5t62.5 28.5h7h8h5h5q39 -4 69.5 -30.5t30.5 -63.5q0 -10 -3 -24.5t-11 -29.5q-2 -6 -6 -13t-11 -13l-258 -350q-20 -25 -35.5 -38.5t-21.5 -13.5l-1 1q-1 1 -1 4q0 2 -1 3t-1 3v4zM133 592q0 12 3 24.5t7 26.5 q6 12 14.5 24.5t20.5 24.5q23 14 45.5 20.5t38.5 6.5q27 0 49.5 -13.5t34.5 -29.5q12 -12 20.5 -28.5t10.5 -33.5q2 -8 3 -15t1 -13v-8q0 -4 -2 -9q-2 -12 -6 -24.5t-13 -20.5q-16 -16 -35.5 -28.5t-39.5 -16.5q-6 -2 -13.5 -3t-13.5 -1q-47 0 -86 35t-39 82z" />
<glyph unicode="&#x3c;" horiz-adv-x="1165" d="M137 369v106l875 399v-137l-709 -307l709 -319v-138z" />
<glyph unicode="=" horiz-adv-x="1165" d="M152 201v123h843v-123h-843zM152 524v121h843v-121h-843z" />
<glyph unicode="&#x3e;" horiz-adv-x="1165" d="M137 -27v138l703 303l-703 323v137l875 -415v-90z" />
<glyph unicode="?" horiz-adv-x="747" d="M39 965q0 27 1 56.5t3 59.5q12 88 73.5 163t239.5 75q10 0 19.5 -1t17.5 -1q123 -14 226.5 -105.5t103.5 -226.5q0 -70 -36 -151.5t-118 -165.5q-14 -12 -27.5 -25.5t-29.5 -26.5q-8 -6 -15 -13l-14 -13q-37 -39 -52 -82t-28 -100l-13 -73q-7 -40 -17 -87h-62l-30 321 q0 2 -1 3t-1 3t-1.5 3.5t-1.5 3.5q0 49 26 80.5t60 62.5q10 6 20.5 14.5t18.5 18.5q49 39 88 93t39 148v13q0 94 -59 149.5t-129 59.5h-7h-5h-5h-8q-74 -4 -137 -66.5t-63 -189.5h-76zM221 88q0 12 4 26.5t11 30.5q6 10 13 20.5t17 20.5q23 14 45.5 20.5t38.5 6.5h5h5 q23 -2 43.5 -14.5t30.5 -28.5q12 -12 20.5 -28.5t12.5 -32.5q2 -8 3 -15.5t1 -13.5v-8q0 -4 -2 -9q-2 -12 -7 -24t-13 -21q-16 -16 -36 -24t-40 -12q-6 -2 -14 -2h-13q-49 0 -87 31.5t-38 76.5z" />
<glyph unicode="@" horiz-adv-x="1583" d="M115 635q0 285 199.5 473t463.5 188q45 0 92.5 -6t94.5 -20q53 -14 106 -36t103 -52q102 -63 166.5 -190.5t64.5 -266.5q0 -25 -2 -49.5t-6 -48.5q-16 -82 -59.5 -161t-116.5 -142q-2 -2 -6.5 -5.5t-6.5 -5.5q-29 -23 -66.5 -43t-76.5 -32q-20 -8 -42 -12.5t-42 -4.5 q-43 0 -79 25.5t-50 77.5q-12 -12 -25.5 -22.5t-27.5 -18.5q-39 -27 -78 -41.5t-76 -14.5q-109 0 -189.5 93.5t-82.5 205.5v3v3q0 4 1 9.5t1 9.5t1 9t1 9q25 199 118 303.5t199 131.5q18 4 37 6t37 2h12q6 0 13 -2q63 -4 118.5 -37t79.5 -84l45 96h123l-151 -541 q-2 -4 -3 -10t-1 -12l-3.5 -14.5t-1.5 -12.5q0 -27 10.5 -40t26.5 -13t39 10t47 27q33 25 62.5 58.5t44.5 70.5q2 4 3 8t3 8q20 59 29.5 117.5t9.5 106.5q0 215 -143.5 323.5t-315.5 118.5h-16h-17h-21q-11 0 -22 -2q-18 0 -36 -2l-33 -4q-182 -29 -296 -187.5t-124 -343.5 q-2 -10 -2 -19v-20q0 -156 86 -296t274 -205q41 -12 93.5 -21.5t111.5 -9.5q27 0 55.5 2t57.5 6q86 14 165.5 55t129.5 119h135q-72 -133 -224.5 -205.5t-320.5 -76.5h-11h-9h-16h-15q-236 10 -433.5 162.5t-207.5 473.5l-1 4q-1 3 -1 5v1q0 3 -1 5t-1 4zM528 524 q0 -66 44 -117t108 -51q23 0 47.5 8.5t50.5 26.5q41 29 80 84t70 141q2 8 4 17.5l4 19.5q0 8 1 17.5t1 17.5q0 70 -43 120t-94 64q-2 0 -5 1t-5 1q-10 0 -21.5 -1t-24.5 -3q-70 -14 -131 -85.5t-82 -229.5q0 -2 -1 -6t-1 -8q0 -6 -1 -9.5t-1 -7.5z" />
<glyph unicode="A" horiz-adv-x="1081" d="M4 4l520 1329l551 -1329h-262l-137 334h-428l-123 -334h-121zM293 430h352l-186 444z" />
<glyph unicode="B" horiz-adv-x="1128" d="M119 4v1270h504q195 0 285.5 -91t101.5 -200q2 -8 2 -16v-17q0 -96 -51.5 -181t-139.5 -107q113 -43 172.5 -115t75.5 -150q4 -14 5 -29.5t1 -29.5q0 -125 -97 -229.5t-249 -104.5h-610zM346 94h246q123 0 178 67.5t55 153.5q0 10 -1 21.5t-3 23.5q-14 96 -83.5 176 t-174.5 80h-217v-522zM346 707h201q115 0 168 64.5t53 143.5q0 10 -1 19.5t-1 19.5q-14 86 -75.5 157t-158.5 71h-186v-475z" />
<glyph unicode="C" horiz-adv-x="1294" d="M49 639q0 31 3 61.5t9 63.5t14.5 63.5t18.5 61.5q4 14 11 30l14 29q70 133 227.5 244t351.5 111q61 0 126 -14.5t132 -45.5q66 -31 130.5 -80t125.5 -119l-75 -59q-31 39 -60.5 69.5t-58.5 57.5q-59 49 -119.5 74.5t-130.5 25.5h-27q-211 0 -322.5 -175t-115.5 -386v-7 v-5v-17v-20q8 -154 75.5 -292t190.5 -199q25 -12 51.5 -21.5t53.5 -13.5q18 -4 36.5 -6t34.5 -2q12 0 25.5 1t28.5 3q109 14 209 83.5t159 182.5l90 -45l-24 -38l-25 -38q-68 -94 -179 -172t-306 -78q-33 0 -66.5 2t-70.5 6q-254 41 -395.5 237t-141.5 427z" />
<glyph unicode="D" horiz-adv-x="1294" d="M141 4v1270h459q274 0 440 -193.5t189 -427.5q0 -14 1 -30.5t1 -32.5q0 -225 -154.5 -405.5t-490.5 -180.5h-445zM369 94h186q219 0 325.5 161t106.5 357v22q0 11 -2 23q-10 197 -126 361t-320 164h-170v-1088z" />
<glyph unicode="E" horiz-adv-x="999" d="M129 4v1270h750v-92h-506v-475h475v-91h-475v-522h506v-90h-750z" />
<glyph unicode="F" horiz-adv-x="915" d="M152 4v1270h718v-92h-475v-475h430v-91h-430v-612h-243z" />
<glyph unicode="G" horiz-adv-x="1333" d="M39 612v20q0 9 2 17q10 209 140 390.5t362 234.5q6 0 13 1t13 3q29 4 59.5 7t63.5 3q45 0 94.5 -7t98.5 -21q86 -27 168 -82.5t147 -147.5l-76 -65q-47 96 -142 155.5t-200 71.5q-14 2 -27.5 3t-25.5 1q-160 0 -294 -129t-138 -422q0 -2 -1 -6t-1 -8t-1 -8.5t-1 -6.5 q0 -246 125 -404.5t315 -158.5q66 0 138.5 22.5t146.5 65.5v475h229v-460l-46 -32l-46 -30q-117 -68 -230.5 -99.5t-217.5 -31.5q-168 0 -312.5 73t-234.5 195q-51 72 -81 157t-38 171q0 12 -1 26.5t-1 26.5z" />
<glyph unicode="H" horiz-adv-x="1294" d="M125 4v1270h244v-567h505v567h246v-1270h-246v596h-505v-596h-244z" />
<glyph unicode="I" horiz-adv-x="542" d="M133 4v1270h244v-1270h-244z" />
<glyph unicode="J" horiz-adv-x="587" d="M-41 4v76q102 0 164.5 35t62.5 147v1012h244v-920q0 -182 -83 -268t-281 -86q-12 0 -24.5 1t-27.5 1q-8 0 -15 1t-15 1h-12h-11h-2z" />
<glyph unicode="K" horiz-adv-x="1044" d="M152 4v1270h229v-1270h-229zM381 631l489 643h156l-430 -567l475 -703h-293z" />
<glyph unicode="L" horiz-adv-x="915" d="M152 4v1270h243v-1163h506v-107h-749z" />
<glyph unicode="M" horiz-adv-x="1499" d="M137 4v1270h258l369 -875l338 875h244v-1270h-244v981l-414 -1026l-444 1040v-995h-107z" />
<glyph unicode="N" horiz-adv-x="1294" d="M141 4v1270h213l660 -860v860h106v-1270h-106l-766 995v-995h-107z" />
<glyph unicode="O" horiz-adv-x="1333" d="M4 657q0 248 171 447t460 199h31q254 -14 385 -142.5t182 -279.5q25 -72 34 -139.5t9 -125.5v-47q-14 -236 -129 -365.5t-250 -183.5q-61 -23 -121.5 -34t-109.5 -11l-31 -2q-254 2 -436.5 184.5t-190.5 473.5q0 4 -1 7t-1 7q0 2 -1 6t-1 6zM281 586q8 -197 90 -361 t256 -164q4 0 9 1t11 1q4 0 9.5 1.5t9.5 1.5q195 10 268.5 184t83.5 381q0 43 -8.5 116.5t-30.5 153.5q-35 111 -107.5 204t-205.5 107q-174 0 -279.5 -123.5t-105.5 -457.5v-22v-23z" />
<glyph unicode="P" horiz-adv-x="1081" d="M141 4v1270h414q39 0 82 -1t88 -9q102 -18 191.5 -92t113.5 -267v-43q0 -133 -90 -235.5t-324 -102.5h-233v-520h-242zM383 631h141q139 0 208 84t69 186q0 10 -1 20.5t-1 20.5q-14 100 -88 185t-201 85h-127v-581z" />
<glyph unicode="Q" horiz-adv-x="1333" d="M23 649q0 18 1 37t3 39q10 98 48 193.5t99 171.5q86 109 205 163t244 62h17h17h20q9 0 19 -2q133 -6 257 -67.5t202 -170.5q45 -66 76 -135.5t45 -140.5q8 -39 12 -78t4 -78q0 -240 -141 -433.5t-379 -219.5v-123h-213v121q-256 39 -396 235.5t-140 425.5zM274 639 q0 -186 73 -345t212 -200v137h213v-137q125 16 193.5 180t68.5 361v21v24q-10 203 -99 373t-269 174h-13q-178 0 -275 -175t-104 -384v-14v-15z" />
<glyph unicode="R" horiz-adv-x="1081" d="M125 4v1270h491q188 0 288 -104.5t108 -231.5q2 -6 2 -13v-14v-7v-5q-4 -115 -84 -210t-238 -103l338 -582h-278l-338 658q6 0 11 -1.5t9 -1.5t6 -1t4 -1q8 -2 16.5 -3t14.5 -1q143 0 221 81t82 177v8v5v8v8q-6 96 -85 176t-234 80h-105v-1192h-229z" />
<glyph unicode="S" horiz-adv-x="1044" d="M76 934q0 188 126 280.5t281 92.5q16 0 31.5 -1t30.5 -3q102 -12 196.5 -65.5t143.5 -147.5l-90 -76q-20 74 -82 122t-131 60q-12 2 -23.5 3t-21.5 1h-3h-4q-76 -2 -139 -51t-72 -150l-4 -12q0 -76 62.5 -121t150.5 -82l47 -20l50 -21q115 -51 211 -132t96 -242v-15 q0 -158 -138.5 -267.5t-304.5 -115.5h-10h-8h-8h-8q-98 4 -191.5 51.5t-157.5 147.5l91 78q20 -63 86.5 -109.5t142.5 -58.5q12 -2 23.5 -3t21.5 -1q78 0 143.5 48t73.5 152v31q0 102 -75.5 153.5t-174.5 94.5q-14 4 -28.5 10t-26.5 13q-117 49 -212 122.5t-95 233.5z" />
<glyph unicode="T" horiz-adv-x="831" d="M4 1182v92h764v-92h-258v-1178h-248v1178h-258z" />
<glyph unicode="U" horiz-adv-x="1210" d="M115 399v875h241v-860q0 -137 84 -220t187 -94q6 -2 13 -2h13h3h3q104 2 191.5 85t87.5 247v844h96v-920q0 -195 -138 -291t-304 -96h-8h-11q-172 6 -315 113.5t-143 318.5z" />
<glyph unicode="V" horiz-adv-x="1081" d="M4 1274h244l352 -830l320 830h124l-505 -1331z" />
<glyph unicode="W" horiz-adv-x="1499" d="M0 1274h244l321 -844l123 307l-199 537h259l323 -844l320 844h125l-521 -1331l-247 643l-259 -643z" />
<glyph unicode="X" horiz-adv-x="1081" d="M-27 4l426 596l-426 674h303l293 -461l305 461h156l-385 -551l461 -719h-307l-320 490l-354 -490h-152z" />
<glyph unicode="Y" horiz-adv-x="1044" d="M-31 1274h289l324 -492l319 492h156l-414 -643v-627h-233v596z" />
<glyph unicode="Z" horiz-adv-x="1081" d="M4 4l703 1178h-641v92h995l-707 -1180h676v-90h-1026z" />
<glyph unicode="[" horiz-adv-x="542" d="M57 -360v1634h365v-107h-182v-1421h182v-106h-365z" />
<glyph unicode="\" horiz-adv-x="542" d="M-186 1303h137l747 -1330h-135z" />
<glyph unicode="]" horiz-adv-x="542" d="M88 -240h182v1407h-182v107h365v-1620h-365v106z" />
<glyph unicode="^" horiz-adv-x="937" />
<glyph unicode="_" horiz-adv-x="999" d="M-8 -102h981v-138h-981v138z" />
<glyph unicode="`" horiz-adv-x="458" d="M88 858q0 6 2 15.5t6 17.5q0 6 2 10l4 8q0 2 2 5.5t2 5.5l244 337l35 43.5t14 14.5v-8v-19q0 -14 -4 -31l-121 -430q-4 -29 -23.5 -45t-39.5 -20q-4 -2 -8 -2h-8h-10q-5 0 -9 2q-33 6 -60.5 32.5t-27.5 63.5z" />
<glyph unicode="a" horiz-adv-x="747" d="M8 4l197 719q14 59 52 94t81 43q6 2 11 2h11q6 0 12.5 -1t14.5 -1q43 -8 82 -42t59 -95l213 -719h-198l-60 244h-323l-62 -244h-90zM190 338h259l-76 278q-6 27 -11.5 46.5t-11.5 33.5q-8 18 -16 27.5t-15 9.5q-4 0 -9 -5t-9 -13q-6 -10 -11 -23.5t-9 -29.5z" />
<glyph unicode="b" horiz-adv-x="915" d="M106 4v1391h168v-551h107q238 0 356.5 -130t128.5 -286v-15v-14q0 -152 -97 -273.5t-280 -121.5h-383zM274 80h136q115 0 180 102.5t67 225.5v3v3v13v13q-8 123 -91 225.5t-251 102.5h-41v-688z" />
<glyph unicode="c" horiz-adv-x="831" d="M18 414v5v7q0 160 110 294t331 138q96 0 181 -38t142 -128l-75 -47q-25 47 -59 75t-68 42q-33 12 -65 16t-56 4q-111 -2 -170.5 -111.5t-61.5 -240.5v-7v-5v-11v-12q6 -131 64.5 -240.5t157.5 -109.5l10 4q104 0 164.5 55.5t95.5 120.5l3 3q1 1 1 3l76 -30 q-41 -90 -108.5 -141.5t-141.5 -69.5q-27 -8 -53.5 -11.5t-51.5 -3.5q-207 16 -314.5 148.5t-111.5 290.5z" />
<glyph unicode="d" horiz-adv-x="915" d="M27 408v11v11v5v7q4 150 111.5 276t318.5 126h139v551h182v-1391h-307q-209 0 -322.5 126t-121.5 278zM240 422q0 -129 67.5 -235.5t198.5 -106.5h90v688h-90q-127 0 -194.5 -102.5t-71.5 -227.5v-8v-8z" />
<glyph unicode="e" horiz-adv-x="710" d="M111 170v537q0 80 37.5 108.5t127.5 28.5h386v-62h-293q-45 0 -69 -12t-24 -47v-248h310v-76h-310v-258q0 -35 21.5 -55t56.5 -20h338v-62h-430q-102 0 -126.5 33t-24.5 133z" />
<glyph unicode="f" horiz-adv-x="503" d="M129 4v1192q0 80 57.5 139.5t169.5 59.5h142v-92h-64q-80 0 -101.5 -32t-21.5 -89v-338h201v-92h-201v-748h-182z" />
<glyph unicode="g" horiz-adv-x="876" d="M14 412v12v12v7v6q4 158 102.5 288.5t291.5 136.5q127 0 210.5 -46t141.5 -136l-90 -47q-31 63 -75 100t-89 50l-25 4q-12 2 -24 2q-88 0 -161 -91.5t-73 -265.5q0 -154 65.5 -262t143.5 -127q6 0 13.5 -1t13.5 -1q12 0 24.5 2t24.5 8q33 14 63.5 48t51.5 90v243h168 v-821h-168v426q-29 -25 -69 -37t-83 -18q-14 -2 -30.5 -3t-30.5 -1q-33 0 -66 3t-59 11q-125 43 -195 160t-76 248z" />
<glyph unicode="h" horiz-adv-x="915" d="M106 4v1391h183v-885h307v334h182v-840h-182v410h-307v-410h-183z" />
<glyph unicode="i" horiz-adv-x="458" d="M92 1128q0 12 3 24.5t7 25.5q6 12 14.5 24t20.5 25q23 16 44.5 21t39.5 5h4h4q23 -2 43.5 -13t30.5 -28q12 -10 19.5 -26.5t11.5 -32.5q2 -8 3 -16.5t1 -16.5v-7v-7q-2 -14 -7 -26.5t-12 -18.5q-12 -12 -27.5 -22.5t-29.5 -16.5q-12 -6 -23.5 -8t-21.5 -2q-49 0 -87 33.5 t-38 82.5zM121 4v840h182v-840h-182z" />
<glyph unicode="j" horiz-adv-x="458" d="M-45 -315q125 2 153.5 47t28.5 182v930h182v-991q0 -133 -76.5 -176.5t-168.5 -49.5q-18 -2 -36 -2h-34l-49 -2v62zM106 1143q0 12 3.5 24.5l7.5 26.5q6 12 14 24.5t21 24.5q23 14 45 20.5t39 6.5q27 0 49 -13.5t34 -29.5q12 -12 20.5 -28.5t10.5 -33.5q2 -8 3 -15t1 -13 v-9q0 -4 -2 -8q-2 -12 -6 -24.5t-12 -20.5q-16 -16 -35.5 -28.5t-40.5 -16.5q-6 -2 -13 -3t-14 -1q-47 0 -86 35t-39 82z" />
<glyph unicode="k" horiz-adv-x="831" d="M125 4v1391h182v-981l338 430h123l-293 -369l383 -471h-242l-309 379v-379h-182z" />
<glyph unicode="l" horiz-adv-x="458" d="M102 160q0 4 1 9t1 11t1 11.5t1 9.5v1194h183v-1178q0 -70 8 -103.5t53 -33.5h90v-76h-196q-76 0 -104.5 36t-35.5 81q0 10 -1 19.5t-1 19.5z" />
<glyph unicode="m" horiz-adv-x="1081" d="M94 4v703q0 78 41 115.5t90 39.5h3h3h8h7q41 -4 75.5 -28.5t47.5 -65.5l141 -444l106 399q12 63 51.5 97t84.5 40q6 2 11 2h9h3h3q57 -2 106.5 -49t49.5 -137v-672h-166v658q0 25 -6 39t-12 16q0 2 -1 2h-4q-4 0 -8 -3t-8 -7q-6 -8 -12 -20.5t-10 -26.5l-168 -596 q-6 -29 -17.5 -46.5t-25.5 -23.5q-6 -4 -11.5 -5t-9.5 -1q-20 0 -37.5 18.5t-23.5 40.5l-183 596q0 2 -1 4l-3 6q-2 6 -6 14.5t-6 14.5l-10 13q-4 5 -8 5l-2 -2q-2 -2 -2 -6q-2 -8 -4.5 -19t-2.5 -30v-641h-92z" />
<glyph unicode="n" horiz-adv-x="915" d="M106 4v688q0 82 37 116t82 36h3h3h13q6 0 14 -2q33 -4 63.5 -20.5t43.5 -39.5l278 -413q16 -23 27.5 -36.5t17.5 -13.5t10 15.5t4 48.5v461h76v-778q0 -4 -1 -10.5t-1 -10.5q-6 -25 -23.5 -45t-37.5 -20q-14 0 -32.5 11t-39.5 44l-369 565q-29 47 -46 67.5t-23 20.5 t-7 -15.5t-1 -41.5v-627h-91z" />
<glyph unicode="o" horiz-adv-x="915" d="M12 436q0 16 1 34.5t5 37.5q2 16 5.5 31.5t7.5 29.5q35 115 137 210t272 95q209 -6 315.5 -127.5t125.5 -267.5q2 -16 3 -32.5t1 -32.5v-17q0 -8 -2 -14q-4 -63 -23.5 -123.5t-50.5 -103.5q-51 -76 -119.5 -116t-138.5 -50q-18 -4 -35.5 -5t-36.5 -1h-5h-7 q-170 4 -312.5 133t-142.5 319zM213 430q0 -150 59.5 -265.5t184.5 -115.5q102 0 161.5 113.5t61.5 251.5v7v5v17q0 9 -2 20q-6 119 -60.5 220t-160.5 116h-21q-98 0 -153.5 -105.5t-67.5 -230.5q0 -8 -1 -16.5t-1 -16.5z" />
<glyph unicode="p" horiz-adv-x="915" d="M106 -377v1221h228q256 0 384 -126t142 -276q2 -10 2 -19v-20q0 -152 -105.5 -275.5t-299.5 -123.5h-168v-381h-183zM289 80h121q121 0 182 98t61 217v21q0 10 -2 20q-12 125 -93 228.5t-230 103.5h-39v-688z" />
<glyph unicode="q" horiz-adv-x="915" d="M12 425v9q0 170 105.5 297t322.5 127q209 0 327 -110.5t118 -317.5q0 -31 -2 -64.5t-11 -68.5q-18 -102 -91.5 -192.5t-243.5 -114.5v-230h-172v228q-115 16 -198 97t-122 173q-14 37 -22.5 73t-8.5 68v9v8q-2 4 -2 9zM223 402q0 -11 2 -23q6 -94 41 -181t99 -132v165 h172v-165q68 37 98.5 115.5t38.5 164.5q0 14 1 30.5t1 31.5v5v5q0 53 -8.5 102t-16.5 84q-2 8 -4 14l-4 13q-31 70 -76 109.5t-92 47.5q-6 0 -13 1.5t-13 1.5h-8h-7q-51 -6 -98 -46t-78 -114q-14 -39 -24.5 -93.5t-10.5 -111.5v-24z" />
<glyph unicode="r" horiz-adv-x="831" d="M111 4v840h333q115 0 196 -76t83 -166v-3v-3v-11q0 -5 -2 -12q-6 -51 -46 -98t-120 -76l227 -395h-213l-215 426q4 0 9.5 -1t9.5 -1t9 -1t9 -1q72 0 109 50t37 110v12q0 6 -2 12q-6 59 -48.5 108.5t-117.5 49.5h-76v-764h-182z" />
<glyph unicode="s" horiz-adv-x="626" d="M8 600q0 133 88 180t193 54q14 2 27 2h26q43 0 84 -2.5t72 -6.5v-75q-8 2 -15.5 3t-15.5 1q-27 4 -52.5 6t-45.5 2q-96 0 -143.5 -31t-47.5 -71q0 -12 4 -24.5t15 -27.5q14 -23 43.5 -46t70.5 -40q47 -20 84 -42.5t64 -45.5q80 -66 97 -126t17 -93q-14 -139 -113.5 -184 t-215.5 -45q-45 0 -90 4t-84 8q-8 0 -15.5 2t-15.5 2v76q41 -8 80 -13.5t71 -5.5q90 0 143.5 31t53.5 78q0 59 -45 97t-104 73q-10 4 -20.5 10t-18.5 12q-72 39 -131.5 92.5t-59.5 145.5z" />
<glyph unicode="t" horiz-adv-x="542" d="M-4 768v76h520v-76h-170v-764h-182v764h-168z" />
<glyph unicode="u" horiz-adv-x="831" d="M94 217v627h168v-613q0 -80 50 -121.5t110 -41.5q8 0 16 1t17 3q61 10 111 62t50 142v568h91v-596q0 -133 -93.5 -202t-203.5 -75h-12h-11q-111 0 -202 61.5t-91 184.5z" />
<glyph unicode="v" horiz-adv-x="747" d="M-8 844h198l183 -613l11 -47q5 -20 11 -34t11.5 -21.5t11.5 -7.5q4 0 9 5t11 13q8 10 14.5 25.5t10.5 36.5l186 643h92l-213 -719q-14 -70 -56 -105.5t-89 -42.5q-6 -2 -11 -2h-12h-4h-4q-43 2 -81 29t-50 76z" />
<glyph unicode="w" horiz-adv-x="1165" d="M-14 844h196l183 -613l25 -81q11 -35 20 -35q2 0 6 3t8 7q4 8 9 19.5t7 25.5l80 244l-139 430h201l196 -627l8 -28l9 -25q8 -25 17 -41.5t15 -16.5q4 0 10.5 6.5t12.5 16.5l10 30q6 17 10 42l187 643h106l-231 -764q-10 -41 -50 -66.5t-85 -31.5q-6 -2 -13 -2h-12h-7h-7 q-43 4 -81 28.5t-50 71.5l-62 182l-76 -227q-4 -23 -35.5 -37t-72.5 -14q-10 0 -20.5 1t-20.5 3q-41 8 -77 32.5t-50 73.5z" />
<glyph unicode="x" horiz-adv-x="831" d="M4 4l303 379l-303 461h227l199 -289l215 289h123l-274 -385l305 -455h-230l-200 303l-244 -303h-121z" />
<glyph unicode="y" horiz-adv-x="747" d="M-23 844h213l228 -596l248 596h90l-520 -1221h-91l166 381z" />
<glyph unicode="z" horiz-adv-x="671" d="M14 4l336 764h-289v76h365q63 0 92 -21.5t29 -62.5q0 -20 -6 -45t-21 -53l-262 -582h385v-76h-629z" />
<glyph unicode="{" horiz-adv-x="671" d="M45 414v80q92 23 130 89t38 216v262q0 125 53 183.5t144 58.5h155v-107h-76q-59 0 -83.5 -34t-24.5 -148v-307q0 -55 -13.5 -93.5t-37.5 -72.5q-16 -23 -38 -46.5l-48 -50.5q90 -57 113.5 -125.5t23.5 -148.5v-289q0 -88 22.5 -126t67.5 -38l94 -2v-106h-139 q-102 2 -157.5 64.5t-55.5 164.5v318v21q0 11 -2 24q-6 70 -42 131.5t-124 81.5z" />
<glyph unicode="|" horiz-adv-x="458" d="M152 4v1374h122v-1374h-122z" />
<glyph unicode="}" horiz-adv-x="671" d="M61 -285h76q45 2 76 34t31 134v318q0 92 40 156.5t97 86.5l-8 9l-8 8l-8 7l-7 7q-39 41 -72.5 90t-33.5 127v322q0 14 -2 33.5t-6 39.5q-8 41 -31 75t-68 34h-76v107h136q115 0 164 -62.5t49 -210.5v-323q0 -74 31.5 -124.5t68.5 -72.5q14 -8 28.5 -12t26.5 -4v-80 q-70 -10 -112.5 -81t-42.5 -163v-334q0 -88 -49.5 -156.5t-163.5 -68.5l-136 -2v106z" />
<glyph unicode="~" horiz-adv-x="937" />
<glyph unicode="&#xa1;" horiz-adv-x="937" />
<glyph unicode="&#xa2;" horiz-adv-x="747" d="M4 -33q0 96 48 165t106 124l52 50q26 24 46 46q23 27 38 52.5t17 54.5l31 233h61l46 -385q0 -12 -5.5 -23.5t-15.5 -23.5q-18 -18 -45 -38.5t-55 -47.5q-47 -39 -85 -97.5t-38 -146.5q0 -84 58.5 -139t127.5 -67q8 0 15.5 -1.5t15.5 -1.5h3h3q66 2 121 58.5t55 173.5v35 h92v-11v-10v-7q0 -3 2 -5v-18v-15q0 -152 -100 -226.5t-221 -74.5h-20q-9 0 -19 2q-121 12 -222.5 93t-107.5 229q0 2 -1 5t-1 5q0 4 -1 7t-1 5zM250 821q0 12 3 24.5t9 24.5t14.5 24.5t20.5 25.5q23 14 44 20t40 6h4h4q23 -2 43.5 -13t30.5 -28q12 -12 20.5 -26.5 t12.5 -30.5q4 -10 5 -20.5t1 -18.5q0 -16 -5 -31.5t-14 -25.5q-12 -12 -27.5 -20.5t-29.5 -14.5q-12 -6 -25.5 -8t-23.5 -2q-49 0 -88 34.5t-39 79.5z" />
<glyph unicode="&#xa3;" horiz-adv-x="999" d="M98 66v196l213 152l-213 172v182l320 -244v-200zM528 66v196l213 152l-213 172v182l320 -244v-200z" />
<glyph unicode="&#xa4;" horiz-adv-x="671" d="M137 692v565h137v-565h-137zM381 692v565h139v-565h-139z" />
<glyph unicode="&#xa5;" horiz-adv-x="937" />
<glyph unicode="&#xa6;" />
<glyph unicode="&#xa7;" horiz-adv-x="937" />
<glyph unicode="&#xa8;" />
<glyph unicode="&#xa9;" horiz-adv-x="1081" d="M12 643q0 31 5.5 64.5t13.5 68.5q14 45 36.5 90t57.5 84l-107 125l93 92l106 -123q47 49 133 80t182 31q29 0 59 -3t58 -9q51 -10 101.5 -30.5t93.5 -51.5l106 106l94 -92l-110 -110q37 -49 63.5 -109.5t36.5 -124.5q6 -25 8 -48.5t2 -47.5v-21q0 -10 -2 -20 q-6 -74 -32.5 -143.5t-75.5 -126.5l110 -107l-94 -92l-106 106l-46 -27l-46 -26q-59 -27 -115.5 -40t-108.5 -13q-88 0 -167.5 31.5t-143.5 74.5l-106 -106l-93 92l107 107l-8 8q-4 4 -6 8q-37 45 -68 126t-31 177zM141 662q0 -160 82 -256.5t180 -135.5q31 -10 62 -16 t59 -6q203 0 299.5 117.5t96.5 261.5v35q0 31 -9.5 67.5t-27.5 75.5q-39 86 -122 155.5t-214 69.5h-23q-129 0 -214 -67.5t-126 -149.5q-23 -41 -33 -80.5t-10 -70.5z" />
<glyph unicode="&#xaa;" horiz-adv-x="915" d="M14 444q0 203 126 316.5t294 113.5q23 0 48.5 -3t49.5 -7q20 -4 41 -9t39 -11l90 186h93l-107 -231q72 -47 113 -108.5t59 -127.5q14 -47 19.5 -93t5.5 -87q0 -12 -1 -25.5t-3 -25.5q-18 -135 -125 -248t-281 -113q-43 0 -90 9.5t-96 23.5l-121 -227h-92l137 272 q-51 35 -86 77t-57 87q-37 72 -46.5 137t-9.5 94zM209 436q0 -61 15.5 -128.5t49.5 -137.5l291 582q-16 12 -34 19l-33 13l-28 4q-13 2 -26 3q-16 0 -32.5 -2.5t-30.5 -6.5q-35 -10 -67.5 -41.5t-55.5 -78.5q-23 -45 -36 -104t-13 -122zM334 111q23 -31 48.5 -48.5 t51.5 -21.5q6 -2 11 -2h12q10 0 21 2t22 6q33 12 62.5 41t49.5 68q29 49 46.5 114.5t17.5 139.5q0 35 -4 74.5t-13 80.5q-6 29 -14 56.5t-18 54.5z" />
<glyph unicode="&#xab;" horiz-adv-x="1044" d="M92 4v1010q0 139 54.5 255.5t271.5 116.5q20 0 44.5 -1t49.5 -3q10 -2 19.5 -3t19.5 -1q127 -16 191.5 -88.5t72.5 -156.5q2 -6 2 -14v-13v-12q0 -6 -2 -13q-6 -66 -43 -124t-100 -83q-12 -4 -22.5 -9t-20.5 -11q-27 -16 -41.5 -30.5t-14.5 -24.5q0 -4 3.5 -9.5 t9.5 -11.5q12 -10 35 -19l51 -22q125 -45 194.5 -135t87.5 -188q4 -18 5.5 -35t1.5 -33q0 -139 -106.5 -252.5t-315.5 -113.5q-45 0 -97.5 6t-107.5 18v45h8h8q4 0 9.5 -1t9.5 -1q8 0 16 -1t14 -1q182 0 264 88t82 201q0 18 -2 37.5t-6 38.5q-16 78 -61 149.5t-111 116.5 q-47 35 -70.5 61.5t-23.5 48.5q0 31 33 69t78 79q51 53 72.5 100t21.5 86q0 76 -61.5 124t-135.5 59q-12 2 -22.5 3t-20.5 1q-61 0 -111.5 -33t-50.5 -107v-1163h-182z" />
<glyph unicode="&#xac;" />
<glyph unicode="&#xad;" />
<glyph unicode="&#xae;" horiz-adv-x="458" d="M94 772q0 6 2 14.5t6 18.5q0 6 2 11t2 11l107 385q8 39 29.5 60.5t44.5 27.5q6 0 11 1.5t9 1.5h7q3 0 8 -3q33 -6 59.5 -35.5t26.5 -68.5q0 -16 -6.5 -35.5t-20.5 -40.5l-229 -321q-4 -8 -9.5 -14.5t-9.5 -12.5q-8 -6 -14 -11t-13 -5h-2q-2 0 -2 2q-4 2 -6 5t-2 9z" />
<glyph unicode="&#xaf;" />
<glyph unicode="&#xb0;" />
<glyph unicode="&#xb1;" />
<glyph unicode="&#xb2;" />
<glyph unicode="&#xb3;" />
<glyph unicode="&#xb4;" />
<glyph unicode="&#xb5;" />
<glyph unicode="&#xb6;" />
<glyph unicode="&#xb7;" />
<glyph unicode="&#xb8;" />
<glyph unicode="&#xb9;" />
<glyph unicode="&#xba;" horiz-adv-x="937" />
<glyph unicode="&#xbb;" />
<glyph unicode="&#xbc;" />
<glyph unicode="&#xbd;" />
<glyph unicode="&#xbe;" />
<glyph unicode="&#xbf;" horiz-adv-x="937" />
<glyph unicode="&#xc0;" horiz-adv-x="542" d="M147 852q0 12 4.5 25.5t10.5 27.5q6 12 14 23.5t19 21.5q8 4 15 8.5t15 6.5q14 6 29.5 9t26.5 3q27 0 48 -11.5t31 -31.5q12 -12 20.5 -28.5t10.5 -33.5q2 -8 3 -15t1 -13v-8q0 -4 -2 -9q-2 -12 -6 -24t-10 -21q-12 -12 -27.5 -21t-30.5 -16q-12 -4 -23 -6t-22 -2 q-49 0 -88 35t-39 80zM164 -252l76 914q2 23 9 34t15 13q2 2 3 2h3q2 0 5.5 -1t7.5 -5q6 -6 12 -16.5t6 -26.5l76 -916q0 -55 -33 -84t-74 -29q-39 0 -72.5 29t-33.5 86z" />
<glyph unicode="&#xc1;" />
<glyph unicode="&#xc2;" horiz-adv-x="1081" d="M106 422v7v5v8v11q6 172 121 315t293 143q12 0 25.5 -1t27.5 -3q6 0 13.5 -1t13.5 -1l31 201h76l-31 -217q61 -31 103 -69t67 -77q4 -6 7 -11t5 -9l-59 -47q-35 70 -69 100.5t-68 50.5l-152 -747q14 -2 27.5 -5t25.5 -3q88 0 150.5 57t99.5 133l61 -45 q-41 -86 -110.5 -139t-145.5 -70q-16 -4 -33.5 -6t-33.5 -2h-13h-16q-8 0 -15 1t-13 3l-35 -182h-76l31 182q-160 61 -232 177t-76 241zM307 455q8 -119 46 -221.5t91 -122.5l142 733q-139 0 -203 -106.5t-76 -243.5v-20v-19z" />
<glyph unicode="&#xc3;" horiz-adv-x="1622" d="M-76 4l809 1270h813v-92h-506v-475h492v-91h-492v-522h506v-90h-751v426h-461l-273 -426h-137zM381 524h414v643z" />
<glyph unicode="&#xc4;" />
<glyph unicode="&#xc5;" horiz-adv-x="937" />
<glyph unicode="&#xc6;" />
<glyph unicode="&#xc7;" horiz-adv-x="542" d="M164 618v8v5v17q0 9 2 18q10 102 89 189t230 95q135 0 219 -87t99 -191q0 -10 1 -20.5t1 -20.5v-17q0 -8 -2 -16q-8 -109 -83 -200t-235 -91q-150 0 -233.5 97t-87.5 214z" />
<glyph unicode="&#xc8;" horiz-adv-x="1081" d="M125 4l151 535h-135v106h166l92 320q43 170 141.5 247.5t207.5 87.5q8 2 17 3h17q18 0 37 -1.5t37 -5.5q55 -8 108.5 -29.5t96.5 -54.5l-76 -75q-16 12 -34.5 22t-37.5 19q-18 6 -34.5 9t-30.5 3q-70 0 -129.5 -58.5t-87.5 -181.5l-76 -305h213v-106h-258l-127 -428h506 v-107h-764z" />
<glyph unicode="&#xc9;" />
<glyph unicode="&#xca;" horiz-adv-x="937" />
<glyph unicode="&#xcb;" horiz-adv-x="1081" d="M49 1288h199l321 -551l305 551h125l-247 -430h182v-90h-242l-47 -92h244v-90h-258v-582h-217v582h-258v90h227l-45 92h-244v90h199z" />
<glyph unicode="&#xcc;" />
<glyph unicode="&#xcd;" />
<glyph unicode="&#xce;" horiz-adv-x="937" />
<glyph unicode="&#xcf;" horiz-adv-x="876" d="M4 573q0 80 52.5 144.5t170.5 64.5h43q-76 84 -113.5 159t-37.5 134q0 106 87 167t202 61q25 0 50 -3.5t50 -9.5q66 -16 129 -54t108 -99l-92 -62q-25 39 -57.5 64.5t-67.5 40.5q-25 10 -49 15t-45 5q-49 0 -86 -25.5t-37 -68.5q0 -29 20.5 -64.5t59.5 -76.5l83 -82 l110 -109q4 -4 8 -9t10 -9l87 -91q42 -44 71 -79q25 -31 42 -66t27 -69q6 -23 10.5 -45.5t4.5 -45.5q0 -88 -62.5 -155.5t-185.5 -67.5q-2 0 -4 1t-4 1q-4 0 -6 1t-4 1q8 -8 14 -15t14 -13q57 -66 85 -128.5t28 -115.5q0 -111 -90 -182.5t-207 -71.5q-16 0 -32.5 1t-31.5 5 q-72 12 -139 58.5t-117 127.5l76 60l32 -33q15 -16 32 -31q49 -41 95 -58t85 -17q47 0 81 27.5t34 68.5q0 14 -4.5 31.5t-14.5 35.5q-4 4 -8 11l-8 12q-4 6 -8.5 11t-8.5 9q-31 37 -61 68l-62 64l-129 128q-68 67 -145 160q-25 29 -45 70t-31 84q-4 16 -6 32.5t-2 32.5z M170 612q0 -45 45 -112.5t131 -145.5q63 -66 120.5 -96.5t96.5 -30.5q45 0 72 29t27 68q0 14 -4.5 31.5t-12.5 35.5q-6 14 -15 27.5t-22 25.5l-45 53q-27 32 -59 64q-43 49 -95.5 90t-105.5 49q-6 2 -11 2h-11q-14 0 -28 -3l-30 -7q-20 -12 -36.5 -33.5t-16.5 -46.5z" />
<glyph unicode="&#xd0;" />
<glyph unicode="&#xd1;" horiz-adv-x="1165" d="M94 909v10v9v8v8q8 125 110.5 227.5t301.5 102.5h409v-1620h-106v1513h-213v-1513h-107v915q-186 6 -286.5 110.5t-108.5 229.5z" />
<glyph unicode="&#xd2;" horiz-adv-x="937" />
<glyph unicode="&#xd3;" />
<glyph unicode="&#xd4;" />
<glyph unicode="&#xd5;" horiz-adv-x="1333" d="M8 -133l197 274q-37 37 -64.5 75t-48.5 77q-51 102 -60 201.5t-9 181.5q23 303 197.5 450.5t381.5 163.5q14 0 27.5 1t27.5 1q18 0 37 -1t37 -3q74 -8 144.5 -31.5t128.5 -60.5l137 182h121l-183 -258l42 -42q26 -26 53 -62q45 -61 81.5 -158.5t36.5 -241.5 q-6 -297 -199.5 -470t-422.5 -183h-13h-12q-14 0 -27.5 1t-27.5 1q-78 8 -153 36t-140 79l-168 -213h-121zM270 670q0 -78 14.5 -170t43.5 -193l579 768q-45 57 -101 84t-126 37q-31 0 -63.5 -4t-67.5 -12q-29 -10 -58.5 -23.5t-56.5 -36.5q-70 -59 -117 -173.5t-47 -276.5z M387 201q43 -55 92 -92t101 -52q18 -6 36.5 -9t36.5 -3q10 0 19.5 1t17.5 1q51 8 100.5 37t88.5 72q68 72 107.5 190.5t39.5 269.5q0 80 -13.5 174.5t-39.5 194.5z" />
<glyph unicode="&#xd6;" />
<glyph unicode="&#xd7;" />
<glyph unicode="&#xd8;" />
<glyph unicode="&#xd9;" horiz-adv-x="937" />
<glyph unicode="&#xda;" />
<glyph unicode="&#xdb;" horiz-adv-x="937" />
<glyph unicode="&#xdc;" />
<glyph unicode="&#xdd;" />
<glyph unicode="&#xde;" />
<glyph unicode="&#xdf;" />
<glyph unicode="&#xe0;" horiz-adv-x="458" d="M-31 1137q10 25 28.5 44t41.5 19l3 -1q3 -1 5 -1h4q2 0 2 -2h4h4q6 0 12.5 -1t12.5 -3q18 -8 34.5 -26.5t16.5 -45.5v-14q0 -33 -21.5 -53.5t-47.5 -24.5q-4 -2 -8 -2h-7h-7q-3 0 -7 2q-27 4 -47.5 28.5t-20.5 63.5zM289 1120q0 37 19.5 58.5t45.5 21.5l3 -1q3 -1 8 -1h3 h3q2 -2 5 -2h5q35 0 55.5 -21.5t20.5 -68.5q0 -33 -24.5 -51.5t-53.5 -20.5h-3h-3q-33 0 -58.5 20.5t-25.5 65.5z" />
<glyph unicode="&#xe1;" horiz-adv-x="937" />
<glyph unicode="&#xe2;" />
<glyph unicode="&#xe3;" />
<glyph unicode="&#xe4;" />
<glyph unicode="&#xe5;" />
<glyph unicode="&#xe6;" />
<glyph unicode="&#xe7;" />
<glyph unicode="&#xe8;" />
<glyph unicode="&#xe9;" horiz-adv-x="937" />
<glyph unicode="&#xea;" horiz-adv-x="937" />
<glyph unicode="&#xeb;" horiz-adv-x="937" />
<glyph unicode="&#xec;" />
<glyph unicode="&#xed;" />
<glyph unicode="&#xee;" />
<glyph unicode="&#xef;" />
<glyph unicode="&#xf0;" />
<glyph unicode="&#xf1;" horiz-adv-x="937" />
<glyph unicode="&#xf2;" horiz-adv-x="937" />
<glyph unicode="&#xf3;" horiz-adv-x="937" />
<glyph unicode="&#xf4;" horiz-adv-x="458" d="M92 965l197 309h168l-260 -309h-105z" />
<glyph unicode="&#xf5;" horiz-adv-x="937" />
<glyph unicode="&#xf6;" horiz-adv-x="937" />
<glyph unicode="&#xf7;" />
<glyph unicode="&#xf8;" />
<glyph unicode="&#xf9;" horiz-adv-x="458" d="M-12 -328l12 58q23 -10 54.5 -19.5t66.5 -13.5q16 -4 31.5 -5t29.5 -1q41 0 74 16.5t33 46.5v6q-6 39 -35 56.5t-64 17.5q-12 0 -24 -2t-27 -4q-4 -2 -9 -3t-9 -1l47 180h59l-30 -106q16 2 41.5 1t52.5 -5q45 -10 82 -38t37 -94q0 -59 -56.5 -100t-152.5 -41 q-45 0 -100.5 12t-112.5 39z" />
<glyph unicode="&#xfa;" horiz-adv-x="937" />
<glyph unicode="&#xfb;" horiz-adv-x="937" />
<glyph unicode="&#xfc;" horiz-adv-x="937" />
<glyph unicode="&#xfd;" />
<glyph unicode="&#xfe;" />
<glyph unicode="&#xff;" />
<glyph unicode="&#x152;" />
<glyph unicode="&#x153;" horiz-adv-x="1165" d="M-14 4l454 748l12 15l9 13q33 39 64.5 51.5t70.5 12.5h551v-76h-383v-293h307v-92h-307v-227q0 -45 16.5 -60.5t73.5 -15.5h309v-76h-415h-17q-8 0 -14 2q-51 6 -93 34t-42 85v168h-308l-182 -289h-106zM334 383h248v340q0 18 -5.5 29.5t-11.5 11.5t-15 -11.5t-20 -29.5 q-4 -6 -7 -12l-7 -15l-5 -10l-5 -10z" />
<glyph unicode="&#x178;" />
<glyph unicode="&#x2c6;" />
<glyph unicode="&#x2dc;" />
<glyph unicode="&#x2000;" horiz-adv-x="696" />
<glyph unicode="&#x2001;" horiz-adv-x="1394" />
<glyph unicode="&#x2002;" horiz-adv-x="696" />
<glyph unicode="&#x2003;" horiz-adv-x="1394" />
<glyph unicode="&#x2004;" horiz-adv-x="464" />
<glyph unicode="&#x2005;" horiz-adv-x="348" />
<glyph unicode="&#x2006;" horiz-adv-x="231" />
<glyph unicode="&#x2007;" horiz-adv-x="231" />
<glyph unicode="&#x2008;" horiz-adv-x="174" />
<glyph unicode="&#x2009;" horiz-adv-x="278" />
<glyph unicode="&#x200a;" horiz-adv-x="75" />
<glyph unicode="&#x2010;" horiz-adv-x="671" d="M76 201v168l506 276v-170z" />
<glyph unicode="&#x2011;" horiz-adv-x="671" d="M76 201v168l506 276v-170z" />
<glyph unicode="&#x2012;" horiz-adv-x="671" d="M76 201v168l506 276v-170z" />
<glyph unicode="&#x2013;" />
<glyph unicode="&#x2014;" horiz-adv-x="937" />
<glyph unicode="&#x2018;" />
<glyph unicode="&#x2019;" />
<glyph unicode="&#x201a;" />
<glyph unicode="&#x201c;" horiz-adv-x="937" />
<glyph unicode="&#x201d;" horiz-adv-x="937" />
<glyph unicode="&#x201e;" />
<glyph unicode="&#x2022;" />
<glyph unicode="&#x2026;" />
<glyph unicode="&#x202f;" horiz-adv-x="278" />
<glyph unicode="&#x2039;" horiz-adv-x="999" d="M98 324v186l336 258v-182l-213 -172l213 -166v-182zM528 324v186l334 258v-182l-213 -172l213 -166v-182z" />
<glyph unicode="&#x203a;" horiz-adv-x="937" />
<glyph unicode="&#x205f;" horiz-adv-x="348" />
<glyph unicode="&#x2122;" horiz-adv-x="671" d="M137 692v565h137v-565h-137zM381 692v565h139v-565h-139z" />
<glyph unicode="&#xfb01;" horiz-adv-x="962" d="M596 1128q0 12 3 24.5t7 25.5q6 12 14.5 24t20.5 25q23 16 44.5 21t39.5 5h4h4q23 -2 43.5 -13t30.5 -28q12 -10 19.5 -26.5t11.5 -32.5q2 -8 3 -16.5t1 -16.5v-7v-7q-2 -14 -7 -26.5t-12 -18.5q-12 -12 -27.5 -22.5t-29.5 -16.5q-12 -6 -23.5 -8t-21.5 -2 q-49 0 -87 33.5t-38 82.5zM625 4v840h182v-840h-182zM129 4v1192q0 80 57.5 139.5t169.5 59.5h142v-92h-64q-80 0 -101.5 -32t-21.5 -89v-338h201v-92h-201v-748h-182z" />
<glyph unicode="&#xfb02;" horiz-adv-x="962" d="M606 160q0 4 1 9t1 11t1 11.5t1 9.5v1194h183v-1178q0 -70 8 -103.5t53 -33.5h90v-76h-196q-76 0 -104.5 36t-35.5 81q0 10 -1 19.5t-1 19.5zM129 4v1192q0 80 57.5 139.5t169.5 59.5h142v-92h-64q-80 0 -101.5 -32t-21.5 -89v-338h201v-92h-201v-748h-182z" />
<glyph unicode="&#xfb03;" horiz-adv-x="1466" d="M1100 1128q0 12 3 24.5t7 25.5q6 12 14.5 24t20.5 25q23 16 44.5 21t39.5 5h4h4q23 -2 43.5 -13t30.5 -28q12 -10 19.5 -26.5t11.5 -32.5q2 -8 3 -16.5t1 -16.5v-7v-7q-2 -14 -7 -26.5t-12 -18.5q-12 -12 -27.5 -22.5t-29.5 -16.5q-12 -6 -23.5 -8t-21.5 -2 q-49 0 -87 33.5t-38 82.5zM1129 4v840h182v-840h-182zM633 4v1192q0 80 57.5 139.5t169.5 59.5h142v-92h-64q-80 0 -101.5 -32t-21.5 -89v-338h201v-92h-201v-748h-182zM129 4v1192q0 80 57.5 139.5t169.5 59.5h142v-92h-64q-80 0 -101.5 -32t-21.5 -89v-338h201v-92h-201 v-748h-182z" />
<glyph unicode="&#xfb04;" horiz-adv-x="1466" d="M1110 160q0 4 1 9t1 11t1 11.5t1 9.5v1194h183v-1178q0 -70 8 -103.5t53 -33.5h90v-76h-196q-76 0 -104.5 36t-35.5 81q0 10 -1 19.5t-1 19.5zM633 4v1192q0 80 57.5 139.5t169.5 59.5h142v-92h-64q-80 0 -101.5 -32t-21.5 -89v-338h201v-92h-201v-748h-182zM129 4v1192 q0 80 57.5 139.5t169.5 59.5h142v-92h-64q-80 0 -101.5 -32t-21.5 -89v-338h201v-92h-201v-748h-182z" />
</font>
</defs>
</svg>
